<?xml version="1.0" encoding="utf-8"?>
<!-- Generator: Adobe Illustrator 18.0.0, SVG Export Plug-In . SVG Version: 6.00 Build 0)  -->
<!DOCTYPE svg PUBLIC "-//W3C//DTD SVG 1.1//EN" "http://www.w3.org/Graphics/SVG/1.1/DTD/svg11.dtd">
<svg version="1.1" id="Layer_1" xmlns="http://www.w3.org/2000/svg" xmlns:xlink="http://www.w3.org/1999/xlink" x="0px" y="0px"
	 viewBox="0 0 100 100" enable-background="new 0 0 100 100" xml:space="preserve">
<rect x="17.4" y="37.1" fill-rule="evenodd" clip-rule="evenodd" fill="none" width="70.2" height="19.6"/>
<text transform="matrix(1 0 0 1 24.3398 51.0846)" fill="#543D3E" font-family="'Norwester-Regular'" font-size="20.0449" letter-spacing="2">ideal</text>
<rect x="11.6" y="54.5" fill-rule="evenodd" clip-rule="evenodd" fill="none" width="81.9" height="16.4"/>
<text transform="matrix(1 0 0 1 17.7997 58.2037)" fill="#533D3E" font-family="'BebasNeue'" font-size="5.3453" letter-spacing="2">contained space</text>
<path fill="#E9F0F4" d="M60.7,46c0,0,0.1,0,0.1,0c0-0.1,0.1-0.1,0.1-0.2c0,0-0.1,0-0.1,0C60.8,45.9,60.7,46,60.7,46z"/>
<path fill="#E9F0F4" d="M86.6,44.3C86.7,44.4,86.4,44.1,86.6,44.3L86.6,44.3z"/>
<path fill="#E9F0F4" d="M61.9,38.5c0,0.1,0.1,0,0.1,0C62,38.5,61.9,38.5,61.9,38.5z"/>
<path fill="#E9F0F4" d="M61.9,58.7c0,0,0.1,0,0.1,0C61.9,58.7,61.9,58.7,61.9,58.7z"/>
<path fill="#E9F0F4" d="M63.6,52.2C63.6,52.2,63.6,52.2,63.6,52.2C63.6,52.2,63.6,52.1,63.6,52.2z"/>
<path fill="#E9F0F4" d="M61.9,58c0,0-0.1,0-0.1,0C61.9,58.1,61.9,58.1,61.9,58z"/>
<path fill="#E9F0F4" d="M84.9,44.8c0,0,0.1,0,0.1,0c0,0,0-0.1,0-0.1c0,0-0.1,0-0.1,0C84.9,44.7,84.9,44.7,84.9,44.8z"/>
<path fill="#E9F0F4" d="M85.1,44.8C85.1,44.8,85.1,44.8,85.1,44.8C85.1,44.7,85,44.8,85.1,44.8z"/>
<path fill="#E9F0F4" d="M61.6,50.3c0,0.1,0.1,0.2,0.2,0.2C61.8,50.3,61.7,50.3,61.6,50.3z"/>
<path fill="#E9F0F4" d="M85.1,48.5c0,0.1,0.1,0,0.1,0C85.2,48.5,85.1,48.5,85.1,48.5z"/>
<path fill="#E9F0F4" d="M60.8,41.2c0,0,0.1,0,0.1-0.1C60.8,41.2,60.8,41.2,60.8,41.2z"/>
<path fill="#E9F0F4" d="M61.2,54.8C61.2,54.8,61.3,54.8,61.2,54.8C61.2,54.7,61.2,54.8,61.2,54.8z"/>
<path fill="#E9F0F4" d="M61.6,50.6C61.6,50.6,61.7,50.6,61.6,50.6C61.6,50.5,61.6,50.6,61.6,50.6z"/>
<path fill="#E9F0F4" d="M61.2,57c0,0,0.1,0,0.1,0c0,0,0-0.1,0-0.1c0,0-0.1,0-0.1,0C61.2,56.9,61.2,57,61.2,57z"/>
<path fill="#E9F0F4" d="M61.9,43C61.9,43,61.8,43,61.9,43C61.8,43,61.9,43,61.9,43z"/>
<path fill="#E9F0F4" d="M86.3,46.9c0.1,0,0.2,0,0.2-0.1c0,0-0.1,0-0.1,0C86.4,46.8,86.3,46.8,86.3,46.9z"/>
<path fill="#E9F0F4" d="M63,42.3C62.9,42.5,63.2,42.2,63,42.3L63,42.3z"/>
<path fill="#E9F0F4" d="M63.5,52.7c0,0-0.1,0-0.1,0.1C63.4,52.7,63.5,52.7,63.5,52.7z"/>
<path fill="#E9F0F4" d="M63.5,52.5c0,0,0.1,0,0.1,0c0,0,0-0.1,0-0.1C63.6,52.4,63.6,52.4,63.5,52.5C63.5,52.4,63.5,52.5,63.5,52.5z"
	/>
<path fill="#E9F0F4" d="M62.3,41.3c0,0,0,0.1,0,0.1c0.1,0,0.1,0,0.2,0C62.4,41.3,62.4,41.3,62.3,41.3z"/>
<path fill="#E9F0F4" d="M62.8,52.8c-0.1,0-0.1,0-0.2,0c0,0.1-0.1,0.1-0.1,0.3C62.8,53.1,62.8,53,62.8,52.8z"/>
<path fill="#E9F0F4" d="M62.3,60.1c0-0.1,0.1-0.1,0.1-0.2c-0.1,0-0.1,0-0.2,0C62.2,60,62.2,60.1,62.3,60.1z"/>
<path fill="#E9F0F4" d="M85.7,47.3C85.5,47.5,85.8,47.2,85.7,47.3L85.7,47.3z"/>
<path fill="#E9F0F4" d="M62.8,51.4c0,0,0.1,0,0.1-0.1C62.8,51.4,62.8,51.3,62.8,51.4z"/>
<path fill="#E9F0F4" d="M82.9,56.2C82.9,56.2,83,56.2,82.9,56.2C82.9,56.1,82.9,56.2,82.9,56.2z"/>
<path fill="#E9F0F4" d="M82.8,36.8c0,0.1,0,0.1,0,0.2c0.1,0,0.1,0,0.2,0C83,36.8,82.9,36.7,82.8,36.8z"/>
<path fill="#E9F0F4" d="M83,34.9c0,0,0.1,0,0.1,0c0,0,0-0.1,0-0.1c0,0-0.1,0-0.1,0C83,34.8,83,34.8,83,34.9z"/>
<path fill="#E9F0F4" d="M82.8,35.3C82.8,35.2,82.8,35.3,82.8,35.3C82.8,35.3,82.9,35.3,82.8,35.3z"/>
<path fill="#E9F0F4" d="M82,57.3C82,57.3,82.1,57.3,82,57.3C82.1,57.3,82.1,57.2,82,57.3z"/>
<path fill="#E9F0F4" d="M83.6,54.6C83.7,54.6,83.7,54.6,83.6,54.6C83.7,54.5,83.6,54.6,83.6,54.6z"/>
<path fill="#E9F0F4" d="M81.9,42.7c0,0.1,0.1,0.1,0.1,0C82,42.7,82,42.6,81.9,42.7z"/>
<path fill="#E9F0F4" d="M82.4,39.6c0.1,0,0.1,0,0.2,0c0-0.1,0-0.1,0-0.1c-0.1,0-0.1,0-0.2,0C82.4,39.5,82.4,39.6,82.4,39.6z"/>
<path fill="#E9F0F4" d="M82.9,42.3c0,0,0.1,0,0.1-0.1C83,42.2,82.9,42.2,82.9,42.3z"/>
<path fill="#E9F0F4" d="M83.8,47c0,0.1-0.1,0.1-0.1,0.3c0.1,0,0.1,0,0.2,0C84,47.1,84,46.9,83.8,47z"/>
<path fill="#E9F0F4" d="M84.5,49.6c0-0.1,0.1-0.1,0.1-0.3c-0.1,0-0.2,0-0.3,0C84.3,49.5,84.4,49.6,84.5,49.6z"/>
<path fill="#E9F0F4" d="M83.9,46.4C83.9,46.4,84,46.4,83.9,46.4C84,46.4,83.9,46.4,83.9,46.4z"/>
<path fill="#E9F0F4" d="M84.6,52.2c0,0.1,0,0.2,0.1,0.2C84.8,52.4,84.8,52.2,84.6,52.2z"/>
<path fill="#E9F0F4" d="M84.7,49.6c0.1,0,0.2,0,0.2-0.1c-0.1,0-0.1-0.1-0.2-0.1C84.7,49.5,84.7,49.6,84.7,49.6z"/>
<path fill="#E9F0F4" d="M84.7,52c0,0.1,0,0.1,0,0.1c0.1,0,0.1,0.1,0.2,0C84.8,52.1,84.8,52,84.7,52z"/>
<path fill="#E9F0F4" d="M81.9,46.8C81.9,46.8,82,46.8,81.9,46.8C82,46.7,82,46.7,81.9,46.8z"/>
<path fill="#E9F0F4" d="M88.9,43.6c-0.1,0.1,0,0.1,0,0.2C89.1,43.8,89.1,43.5,88.9,43.6z"/>
<path fill="#E9F0F4" d="M77.5,59.8c0.1,0,0.1,0,0.2,0c0-0.1,0-0.2-0.1-0.2C77.6,59.8,77.5,59.8,77.5,59.8z"/>
<path fill="#E9F0F4" d="M77.7,43.4c-0.2-0.1-0.3,0.1-0.2,0.3C77.6,43.7,77.7,43.6,77.7,43.4z"/>
<path fill="#E9F0F4" d="M77.4,56.7c0,0,0.1,0,0.1,0C77.5,56.7,77.4,56.6,77.4,56.7z"/>
<path fill="#E9F0F4" d="M85.5,39.6c0,0.1,0,0.1,0,0.2C85.6,39.8,85.6,39.6,85.5,39.6z"/>
<path fill="#E9F0F4" d="M77,37.1c0,0-0.1,0-0.1,0.1C76.9,37.2,77,37.2,77,37.1z"/>
<path fill="#E9F0F4" d="M83.5,54.2c-0.1-0.1-0.2-0.1-0.2,0C83.3,54.3,83.5,54.3,83.5,54.2z"/>
<path fill="#E9F0F4" d="M79.3,38.1C79.3,38,79.3,38,79.3,38.1C79.3,38.1,79.3,38.1,79.3,38.1z"/>
<path fill="#E9F0F4" d="M83.2,47.6c0,0,0.1,0,0.1,0c0,0,0-0.1,0-0.1c0,0-0.1,0-0.1,0C83.2,47.5,83.2,47.6,83.2,47.6z"/>
<path fill="#E9F0F4" d="M75.2,58.2c0,0.1,0,0.2,0,0.3C75.3,58.6,75.3,58.3,75.2,58.2z"/>
<path fill="#E9F0F4" d="M82.2,38C82.2,37.9,82.2,37.9,82.2,38C82.2,38,82.2,38,82.2,38z"/>
<path fill="#E9F0F4" d="M76.8,42.1C76.8,42.1,76.8,42.1,76.8,42.1C76.8,42.1,76.8,42,76.8,42.1z"/>
<path fill="#E9F0F4" d="M75.8,41.2c0,0-0.1,0-0.1,0.1C75.7,41.3,75.8,41.3,75.8,41.2z"/>
<path fill="#E9F0F4" d="M75.6,44c0,0.1,0.1,0,0.1,0C75.7,43.9,75.6,43.9,75.6,44z"/>
<path fill="#E9F0F4" d="M75.7,50.5c0.2,0,0.2-0.1,0.2-0.2c-0.1,0-0.1,0-0.2,0C75.7,50.4,75.6,50.4,75.7,50.5z"/>
<path fill="#E9F0F4" d="M75.3,50.6c0,0,0.1,0,0.1,0c0,0,0-0.1,0.1-0.1c0,0,0-0.1,0-0.1c0,0-0.1,0-0.1-0.1c0,0-0.1,0-0.1,0
	c0,0,0,0.1-0.1,0.1C75.2,50.5,75.2,50.5,75.3,50.6C75.2,50.5,75.3,50.5,75.3,50.6z"/>
<path fill="#E9F0F4" d="M76.5,53.8C76.5,53.8,76.4,53.8,76.5,53.8C76.5,53.9,76.5,53.8,76.5,53.8z"/>
<path fill="#E9F0F4" d="M76.7,49.3c0,0.1-0.1,0.1,0,0.3C76.8,49.7,76.9,49.3,76.7,49.3z"/>
<path fill="#E9F0F4" d="M77,38.2c0,0,0,0.1,0,0.1c0.1,0,0.1,0,0.2,0C77.2,38.2,77.1,38.2,77,38.2z"/>
<path fill="#E9F0F4" d="M49,37.4c-0.1,0-0.1,0-0.2,0c0,0,0,0.1,0,0.1c0,0,0.1,0,0.1,0C49,37.5,49,37.5,49,37.4z"/>
<path fill="#E9F0F4" d="M76.5,46.8C76.5,46.8,76.5,46.7,76.5,46.8C76.5,46.8,76.5,46.8,76.5,46.8z"/>
<path fill="#E9F0F4" d="M76.1,42.9C76.1,42.8,76,42.8,76.1,42.9C76,42.9,76.1,42.9,76.1,42.9z"/>
<path fill="#E9F0F4" d="M82.2,45.2c0-0.1-0.1-0.1-0.1,0C82.1,45.2,82.2,45.2,82.2,45.2z"/>
<path fill="#E9F0F4" d="M88.3,48.5c0,0-0.1,0-0.1,0c0,0,0,0.1,0,0.1c0,0,0.1,0,0.1,0C88.3,48.6,88.3,48.6,88.3,48.5z"/>
<path fill="#E9F0F4" d="M88.7,43.2c0,0.1-0.2,0.1-0.2,0.3C88.7,43.7,88.9,43.2,88.7,43.2z"/>
<path fill="#E9F0F4" d="M88,38.1c0,0-0.2-0.1-0.2,0C87.9,38.1,88,38.2,88,38.1z"/>
<path fill="#E9F0F4" d="M89.2,44.5C89.1,44.8,89.4,44.5,89.2,44.5L89.2,44.5z"/>
<path fill="#E9F0F4" d="M89.4,44.2c0-0.1-0.1-0.2-0.2-0.2C89.2,44.3,89.3,44.3,89.4,44.2z"/>
<path fill="#E9F0F4" d="M89.2,46.1c0.1,0,0.1,0,0.2,0c0-0.1,0-0.2-0.2-0.2C89.2,46,89.2,46.1,89.2,46.1z"/>
<path fill="#E9F0F4" d="M86.1,39.3C86.1,39.3,86.1,39.3,86.1,39.3C86.1,39.3,86.2,39.3,86.1,39.3z"/>
<path fill="#E9F0F4" d="M86,39.1C86,39.1,86,39.1,86,39.1C86,39.2,86,39.2,86,39.1z"/>
<path fill="#E9F0F4" d="M85.7,51.7C85.7,51.8,85.7,51.8,85.7,51.7c0.1,0.1,0.1,0.1,0.1,0.2C85.8,51.8,85.8,51.7,85.7,51.7z"/>
<path fill="#E9F0F4" d="M86.2,45.2c-0.2,0.1-0.2-0.2-0.3-0.1c0.1,0.1,0.1,0.3,0.3,0.4C86.2,45.5,86.2,45.4,86.2,45.2z"/>
<path fill="#E9F0F4" d="M86.1,51.4c0,0,0.1,0,0.1-0.1C86.2,51.4,86.1,51.4,86.1,51.4z"/>
<path fill="#E9F0F4" d="M86.7,39.3c0-0.1,0-0.2-0.2-0.2c0,0,0,0.1,0,0C86.5,39.3,86.6,39.3,86.7,39.3z"/>
<path fill="#E9F0F4" d="M86.7,39C86.7,39,86.7,39,86.7,39C86.7,39,86.8,39,86.7,39z"/>
<path fill="#E9F0F4" d="M86.2,46.8C86.2,46.8,86.2,46.8,86.2,46.8c0.1,0,0.1,0,0.2,0c0,0,0-0.1,0.1,0c0,0,0-0.1,0-0.1
	c0,0-0.1,0-0.1-0.1c0,0-0.1,0-0.1,0c0,0,0,0.1,0,0.1C86.2,46.7,86.2,46.8,86.2,46.8z"/>
<path fill="#E9F0F4" d="M86.8,38.7C86.8,38.7,86.7,38.7,86.8,38.7C86.7,38.8,86.8,38.8,86.8,38.7z"/>
<path fill="#E9F0F4" d="M86.3,50.8c0,0,0.1,0,0.1,0C86.4,50.8,86.3,50.8,86.3,50.8z"/>
<path fill="#E9F0F4" d="M89.9,55.7c0,0-0.1,0-0.1,0C89.9,55.7,89.9,55.7,89.9,55.7z"/>
<path fill="#E9F0F4" d="M64.6,45.4C64.5,45.6,64.8,45.3,64.6,45.4L64.6,45.4z"/>
<path fill="#E9F0F4" d="M64.4,47.5C64.4,47.5,64.5,47.5,64.4,47.5C64.5,47.4,64.4,47.5,64.4,47.5z"/>
<path fill="#E9F0F4" d="M64.8,44.2C64.7,44.4,65,44.1,64.8,44.2L64.8,44.2z"/>
<path fill="#E9F0F4" d="M65,53.7C65.1,53.7,65.1,53.8,65,53.7C65.1,53.7,65,53.7,65,53.7z"/>
<path fill="#E9F0F4" d="M64.3,54.7c0,0,0.1,0,0.1,0c0-0.1,0-0.1,0.1-0.1c-0.1,0-0.1-0.1-0.2,0C64.3,54.6,64.3,54.6,64.3,54.7z"/>
<path fill="#E9F0F4" d="M64.9,49.7c0.1,0,0.1,0,0.2-0.1C65,49.6,64.9,49.6,64.9,49.7z"/>
<path fill="#E9F0F4" d="M65,54.7C65,54.7,65.1,54.8,65,54.7C65.1,54.7,65,54.6,65,54.7z"/>
<path fill="#E9F0F4" d="M64.3,50.2c0-0.1,0-0.2-0.1-0.2C64.1,50.1,64.1,50.2,64.3,50.2z"/>
<path fill="#E9F0F4" d="M87.2,44.1c-0.1,0-0.1-0.1-0.2-0.1C86.9,44.2,87.2,44.2,87.2,44.1z"/>
<path fill="#E9F0F4" d="M64.2,44.6C64.1,44.7,64.4,44.5,64.2,44.6L64.2,44.6z"/>
<path fill="#E9F0F4" d="M64.2,50.5c0-0.1,0.1-0.1,0.2-0.2c-0.1,0-0.2,0-0.3,0C64.1,50.4,64.1,50.5,64.2,50.5z"/>
<path fill="#E9F0F4" d="M64.1,44.4c0.2,0,0.3,0.1,0.4,0C64.4,44.4,64.2,44.3,64.1,44.4z"/>
<path fill="#E9F0F4" d="M66.2,46.2c0,0,0.1,0,0.1-0.1C66.3,46.2,66.2,46.2,66.2,46.2z"/>
<path fill="#E9F0F4" d="M65.7,45.5C65.7,45.5,65.8,45.5,65.7,45.5C65.7,45.4,65.7,45.5,65.7,45.5z"/>
<path fill="#E9F0F4" d="M65.4,52.9c0.2,0.1,0.3-0.4,0.2-0.4C65.5,52.6,65.4,52.7,65.4,52.9z"/>
<path fill="#E9F0F4" d="M66,38.9C66,38.9,66.1,38.9,66,38.9C66,38.8,66,38.8,66,38.9z"/>
<path fill="#E9F0F4" d="M66,49c0.1,0,0.2-0.1,0.2-0.2c0,0-0.1,0-0.2,0C66,48.9,66,48.9,66,49z"/>
<path fill="#E9F0F4" d="M65.1,41.8c0,0,0,0.1,0,0.2C65.2,42,65.2,41.7,65.1,41.8z"/>
<path fill="#E9F0F4" d="M88.1,46.8c0,0.1,0.1,0,0.1,0C88.2,46.8,88.1,46.8,88.1,46.8z"/>
<path fill="#E9F0F4" d="M65.2,37.3C65.2,37.3,65.3,37.3,65.2,37.3C65.2,37.3,65.2,37.3,65.2,37.3z"/>
<path fill="#E9F0F4" d="M88.2,50.5c0,0,0.1,0,0.1,0c0-0.1,0.1-0.1,0.1-0.2c0,0-0.1,0-0.1,0C88.2,50.4,88.1,50.4,88.2,50.5z"/>
<path fill="#E9F0F4" d="M88.5,48.1C88.5,48.2,88.5,48.2,88.5,48.1c-0.1,0.1-0.1,0.1-0.1,0.1C88.5,48.4,88.6,48.1,88.5,48.1z"/>
<path fill="#E9F0F4" d="M88.5,50.1C88.3,50.3,88.6,50.2,88.5,50.1L88.5,50.1z"/>
<path fill="#E9F0F4" d="M65.3,53.2c0,0-0.1,0.3,0,0.3C65.5,53.5,65.5,53.1,65.3,53.2z"/>
<path fill="#E9F0F4" d="M65.5,38.1C65.5,38,65.4,38,65.5,38.1C65.4,38.1,65.5,38.1,65.5,38.1z"/>
<path fill="#E9F0F4" d="M70.2,50.5C70.2,50.5,70.2,50.5,70.2,50.5C70.2,50.5,70.2,50.4,70.2,50.5z"/>
<path fill="#E9F0F4" d="M70.3,38.3C70,38.5,70.5,38.6,70.3,38.3L70.3,38.3z"/>
<path fill="#E9F0F4" d="M69.8,38.3c0-0.2-0.1-0.3-0.3-0.2C69.5,38.3,69.7,38.4,69.8,38.3z"/>
<path fill="#E9F0F4" d="M74.6,39.3c0,0,0.1,0,0.1,0c0,0,0-0.1,0-0.1c0,0-0.1,0-0.1,0C74.6,39.3,74.6,39.3,74.6,39.3z"/>
<path fill="#E9F0F4" d="M74.6,49.3C74.6,49.4,74.6,49.4,74.6,49.3C74.7,49.3,74.6,49.3,74.6,49.3z"/>
<path fill="#E9F0F4" d="M67,44.8c0,0-0.1,0-0.1,0.1C66.9,44.9,67,44.9,67,44.8z"/>
<path fill="#E9F0F4" d="M68.2,47.3C68.2,47.3,68.2,47.2,68.2,47.3C68.2,47.3,68.2,47.3,68.2,47.3z"/>
<path fill="#E9F0F4" d="M66.4,38.1c0,0-0.1,0-0.1,0c0,0,0,0.1,0,0.1c0,0,0.1,0,0.1,0C66.4,38.1,66.4,38.1,66.4,38.1z"/>
<path fill="#E9F0F4" d="M65.4,38.5C65.4,38.5,65.4,38.5,65.4,38.5C65.4,38.5,65.5,38.5,65.4,38.5z"/>
<path fill="#E9F0F4" d="M67.2,37.8C67.2,37.8,67.2,37.8,67.2,37.8C67.2,37.8,67.3,37.8,67.2,37.8z"/>
<path fill="#E9F0F4" d="M65.5,40.4c0.1-0.1,0.1-0.2-0.1-0.2C65.4,40.4,65.3,40.4,65.5,40.4z"/>
<path fill="#E9F0F4" d="M66.5,47.6C66.5,47.6,66.5,47.6,66.5,47.6C66.5,47.6,66.6,47.6,66.5,47.6z"/>
<path fill="#E9F0F4" d="M67,37.2c0-0.1-0.1-0.1-0.1,0C66.9,37.3,66.9,37.3,67,37.2z"/>
<path fill="#E9F0F4" d="M66.4,59.4C66.4,59.4,66.3,59.3,66.4,59.4C66.3,59.4,66.4,59.5,66.4,59.4z"/>
<path fill="#E9F0F4" d="M40.7,48.6c0,0.1,0.1,0,0.1,0C40.8,48.5,40.7,48.5,40.7,48.6z"/>
<path fill="#E9F0F4" d="M57.8,40.9c0-0.1,0-0.2,0-0.3c-0.1,0-0.1,0-0.2,0C57.6,40.8,57.7,40.9,57.8,40.9z"/>
<path fill="#E9F0F4" d="M85.3,43.7C85.2,43.8,85.5,43.6,85.3,43.7L85.3,43.7z"/>
<path fill="#E9F0F4" d="M85.5,53.7c0,0.1,0,0.1,0,0.1C85.6,53.9,85.6,53.6,85.5,53.7z"/>
<path fill="#E9F0F4" d="M85.6,54.9c0.2,0,0.3,0,0.3-0.2c0-0.1-0.2-0.1-0.3-0.1C85.6,54.7,85.6,54.8,85.6,54.9z"/>
<path fill="#E9F0F4" d="M85.8,55.4c0,0.1-0.1,0.1-0.2,0.2c0.1,0,0.1,0.1,0.3,0C85.9,55.5,85.9,55.4,85.8,55.4z"/>
<path fill="#E9F0F4" d="M85.9,47.5c0,0.1,0,0.1,0,0.2C86.1,47.8,86.1,47.5,85.9,47.5z"/>
<path fill="#E9F0F4" d="M87.1,50.8c0,0-0.1,0-0.1,0C87,50.8,87.1,50.8,87.1,50.8z"/>
<path fill="#E9F0F4" d="M84.4,39.5c-0.1,0-0.1,0-0.2,0.1C84.3,39.5,84.4,39.5,84.4,39.5z"/>
<path fill="#E9F0F4" d="M84.8,44.8c0,0,0.1,0,0.1,0c0,0,0-0.1,0-0.1c0,0-0.1,0-0.1,0C84.8,44.7,84.8,44.7,84.8,44.8z"/>
<path fill="#E9F0F4" d="M87.3,41.2c0,0.2-0.1,0.2,0.1,0.4C87.4,41.5,87.5,41.2,87.3,41.2z"/>
<path fill="#E9F0F4" d="M87.3,41.1c0.1,0.1,0.1,0.1,0.2,0c-0.2,0-0.1-0.1-0.3-0.1C87.2,41,87.3,41.1,87.3,41.1
	c-0.1,0-0.1,0.1-0.2,0.1C87.3,41.2,87.3,41.2,87.3,41.1z"/>
<path fill="#E9F0F4" d="M87.2,52.4c0,0,0.1,0,0.2,0c0-0.1,0-0.2-0.1-0.2C87.3,52.3,87.2,52.3,87.2,52.4z"/>
<path fill="#E9F0F4" d="M86.9,48C86.9,48,87,48,86.9,48C86.9,47.9,86.9,48,86.9,48z"/>
<path fill="#E9F0F4" d="M87.3,52.9c-0.1,0-0.2,0-0.2,0.1C87.2,53.1,87.3,53.1,87.3,52.9z"/>
<path fill="#E9F0F4" d="M87.3,45.4c0-0.1,0-0.1,0-0.2c-0.1,0-0.1,0-0.2,0.1C87.2,45.3,87.2,45.4,87.3,45.4z"/>
<path fill="#E9F0F4" d="M86.1,56c0,0-0.1,0.3,0.1,0.3C86.2,56.3,86.2,55.9,86.1,56z"/>
<path fill="#E9F0F4" d="M86.2,51.9c0,0.1-0.1,0.1-0.1,0.2C86.3,52.1,86.3,51.9,86.2,51.9z"/>
<path fill="#E9F0F4" d="M58.4,38.9c0,0,0.1,0,0.1,0c0-0.1,0-0.1,0.1-0.1c-0.1,0-0.1-0.1-0.2,0C58.4,38.8,58.4,38.8,58.4,38.9z"/>
<path fill="#E9F0F4" d="M86,57.1c0.1,0,0.1,0,0.2,0c0-0.1,0-0.1,0-0.2c-0.1,0-0.1,0-0.2,0C86,57,86,57,86,57.1z"/>
<path fill="#E9F0F4" d="M86.7,45.7c-0.1,0-0.1,0-0.2,0c0,0.1-0.1,0.3,0.1,0.3C86.7,45.9,86.7,45.8,86.7,45.7z"/>
<path fill="#E9F0F4" d="M87.1,50.2c-0.1,0-0.1-0.1-0.3-0.1c0,0.2,0.1,0.2,0.2,0.3C87.1,50.3,87.1,50.3,87.1,50.2z"/>
<path fill="#E9F0F4" d="M86.3,59.7c0.1,0,0.1-0.1,0.2-0.2c-0.1,0-0.1,0-0.2,0C86.3,59.6,86.2,59.6,86.3,59.7z"/>
<path fill="#E9F0F4" d="M85.3,58.2c-0.1,0-0.2,0-0.3,0c0,0.1,0,0.2,0,0.3c0.1,0,0.1,0,0.2,0.1C85.3,58.5,85.4,58.4,85.3,58.2z"/>
<path fill="#E9F0F4" d="M81.3,51.8c0.1,0,0.2-0.1,0.2-0.2C81.2,51.6,81.2,51.7,81.3,51.8z"/>
<path fill="#E9F0F4" d="M80.6,40.2c0.1,0,0.2,0,0.2-0.1C80.7,40,80.6,40.1,80.6,40.2z"/>
<path fill="#E9F0F4" d="M84.1,42.5c0.1,0,0.1,0.1,0.1,0C84.2,42.5,84.1,42.5,84.1,42.5z"/>
<path fill="#E9F0F4" d="M81.7,47.5c0,0,0.1,0,0.1,0C81.8,47.4,81.7,47.4,81.7,47.5z"/>
<path fill="#E9F0F4" d="M81.8,52.2C81.8,52.2,81.9,52.2,81.8,52.2C81.9,52.1,81.8,52.2,81.8,52.2z"/>
<path fill="#E9F0F4" d="M53.2,39.9c0,0,0-0.1,0-0.1c-0.1,0-0.1,0-0.2,0C53.1,39.8,53.1,39.9,53.2,39.9z"/>
<path fill="#E9F0F4" d="M80.2,39.1C80,39.4,80.5,39.2,80.2,39.1L80.2,39.1z"/>
<path fill="#E9F0F4" d="M83.2,47.9C83.2,47.9,83.2,47.9,83.2,47.9C83.2,47.8,83.1,47.9,83.2,47.9z"/>
<path fill="#E9F0F4" d="M83,45.2c0.1,0,0.2,0,0.2-0.1C83.1,45.1,83,45.1,83,45.2z"/>
<path fill="#E9F0F4" d="M82.9,45.5C82.9,45.5,83,45.5,82.9,45.5C83,45.5,82.9,45.5,82.9,45.5z"/>
<path fill="#E9F0F4" d="M83.2,59.1C83.2,59.2,83.2,59.2,83.2,59.1c0.1,0.1,0.1,0.1,0.2,0.1C83.4,59.2,83.3,59.1,83.2,59.1z"/>
<path fill="#E9F0F4" d="M55.8,39.2c-0.1,0.1,0,0.2-0.1,0.4C55.9,39.6,56,39.2,55.8,39.2z"/>
<path fill="#E9F0F4" d="M82.3,50.5c-0.1,0-0.1,0-0.2,0c0,0,0,0.1,0,0.2c0,0,0.1,0,0.1,0C82.2,50.6,82.3,50.6,82.3,50.5z"/>
<path fill="#E9F0F4" d="M83.6,58C83.6,58,83.6,58,83.6,58C83.6,57.9,83.5,58,83.6,58z"/>
<path fill="#E9F0F4" d="M54.6,39.4c0,0.1,0,0.1,0,0.2c0.1,0,0.2,0,0.2-0.1C54.8,39.4,54.7,39.4,54.6,39.4z"/>
<path fill="#E9F0F4" d="M82.3,47.6c0,0,0.1,0,0.1,0c0,0,0-0.1,0-0.1c0,0-0.1,0-0.1,0C82.3,47.5,82.3,47.6,82.3,47.6z"/>
<path fill="#E9F0F4" d="M82.7,38.1c0.2,0,0.2-0.1,0.2-0.2c-0.1,0-0.1-0.1-0.2-0.1C82.7,38,82.6,38,82.7,38.1z"/>
<path fill="#E9F0F4" d="M82.6,50.6c0-0.1,0.1-0.1,0.1-0.2c-0.1,0-0.1,0-0.2,0C82.5,50.5,82.5,50.6,82.6,50.6z"/>
<path fill="#E9F0F4" d="M82.6,38.4c0.1,0,0.1,0.1,0.2,0c0-0.1,0.1-0.1,0.1-0.3C82.6,38.1,82.6,38.3,82.6,38.4z"/>
<path fill="#E9F0F4" d="M85.6,52.5c0,0.1,0.1,0.1,0.1,0C85.6,52.5,85.6,52.5,85.6,52.5z"/>
<path fill="#E9F0F4" d="M39.9,51.2C39.9,51.2,39.9,51.2,39.9,51.2C39.9,51.2,39.9,51.1,39.9,51.2z"/>
<path fill="#E9F0F4" d="M39.8,41.3c0,0.1,0,0.1-0.1,0.2c0.1,0,0.1,0,0.2,0C39.9,41.3,39.9,41.3,39.8,41.3z"/>
<path fill="#E9F0F4" d="M39.9,37.5C39.9,37.5,39.9,37.6,39.9,37.5C39.9,37.5,39.9,37.5,39.9,37.5z"/>
<path fill="#E9F0F4" d="M62.5,42.8c0,0,0.1,0,0.1,0c0,0,0-0.1,0-0.1C62.6,42.7,62.5,42.7,62.5,42.8C62.5,42.7,62.5,42.7,62.5,42.8z"
	/>
<path fill="#E9F0F4" d="M62.2,42.8c0.1,0,0.2,0,0.3,0.1C62.5,42.7,62.2,42.7,62.2,42.8z"/>
<path fill="#E9F0F4" d="M89.5,55.5c0,0,0.1,0,0.1,0C89.6,55.5,89.5,55.5,89.5,55.5z"/>
<path fill="#E9F0F4" d="M61.7,37.2c0,0.3,0.2,0.1,0.4,0.2C62,37.1,61.9,37.2,61.7,37.2z"/>
<path fill="#E9F0F4" d="M87.2,57.8c-0.1,0-0.1,0-0.2,0c0,0.1,0,0.1,0,0.2c0,0,0.1,0,0.1,0C87.1,57.9,87.2,57.9,87.2,57.8z"/>
<path fill="#E9F0F4" d="M40.1,36.6c0-0.1,0-0.1-0.1-0.2C39.9,36.5,39.9,36.7,40.1,36.6z"/>
<path fill="#E9F0F4" d="M89.8,55.5C89.8,55.5,89.7,55.5,89.8,55.5C89.7,55.6,89.8,55.5,89.8,55.5z"/>
<path fill="#E9F0F4" d="M89.5,39.3c0.1,0,0.1,0,0.2,0c0,0,0-0.1,0-0.2c0,0-0.1,0-0.1,0C89.5,39.2,89.5,39.2,89.5,39.3z"/>
<path fill="#E9F0F4" d="M82,36.3c0,0-0.1,0-0.1,0.1C81.9,36.3,82,36.4,82,36.3z"/>
<path fill="#E9F0F4" d="M40.5,39.7c0,0,0.1,0,0.1,0c0,0,0-0.1,0-0.1c0,0-0.1,0-0.1,0C40.5,39.6,40.5,39.6,40.5,39.7z"/>
<path fill="#E9F0F4" d="M61.7,40.5c0,0.1,0,0.2,0.2,0.2C61.9,40.5,61.7,40.6,61.7,40.5z"/>
<path fill="#E9F0F4" d="M40.5,33.6c0,0,0.1,0,0.2,0c0-0.1,0-0.1,0-0.2c0,0-0.1,0-0.2,0C40.5,33.5,40.5,33.6,40.5,33.6z"/>
<path fill="#E9F0F4" d="M40.7,32.4C40.7,32.4,40.8,32.4,40.7,32.4C40.7,32.4,40.7,32.4,40.7,32.4z"/>
<path fill="#E9F0F4" d="M40.9,33.2c0,0,0.1,0,0.1,0C40.9,33.2,40.9,33.2,40.9,33.2z"/>
<path fill="#E9F0F4" d="M41,31.9c0,0,0.1,0,0.1,0c0,0,0-0.1,0-0.1c0,0-0.1,0-0.1,0C41,31.8,41,31.8,41,31.9z"/>
<path fill="#E9F0F4" d="M40.1,45.1C40.1,45.4,40.3,44.8,40.1,45.1C40.1,45.1,40.1,45.1,40.1,45.1z"/>
<path fill="#E9F0F4" d="M40.1,42.3c0,0.2,0.1,0.2,0.2,0.1C40.3,42.3,40.2,42.3,40.1,42.3z"/>
<path fill="#E9F0F4" d="M62.9,43.2C62.9,43.2,63,43.2,62.9,43.2C62.9,43.2,62.9,43.2,62.9,43.2z"/>
<path fill="#E9F0F4" d="M40.4,38.1C40.3,38.1,40.3,38.1,40.4,38.1C40.3,38.2,40.4,38.1,40.4,38.1z"/>
<path fill="#E9F0F4" d="M63.2,42.2c0.1-0.1,0.1-0.2-0.1-0.2C63.1,42.1,63.2,42.2,63.2,42.2z"/>
<path fill="#E9F0F4" d="M61.5,37.7c0,0.1,0,0.1,0,0.2c0.2,0,0.2-0.1,0.4,0C61.9,37.5,61.7,37.7,61.5,37.7z"/>
<path fill="#E9F0F4" d="M60.1,39.5c-0.1,0-0.1,0-0.2,0.1c0.1,0,0.1,0.1,0.2,0.1C60.1,39.6,60.1,39.6,60.1,39.5z"/>
<path fill="#E9F0F4" d="M60.1,40.4c0,0.1,0,0.2,0.2,0.2C60.4,40.5,60.3,40.3,60.1,40.4z"/>
<path fill="#E9F0F4" d="M88.9,43.4c0,0,0.1,0.1,0.1,0.1C89.2,43.5,89,43.2,88.9,43.4z"/>
<path fill="#E9F0F4" d="M87.8,58.3c0,0.3,0.2,0.5,0.4,0.3c-0.1-0.1-0.1-0.3-0.1-0.4C88,58.3,87.9,58.3,87.8,58.3z"/>
<path fill="#E9F0F4" d="M88,53.9C88,54,88,54,88,53.9C88,53.9,88,53.9,88,53.9z"/>
<path fill="#E9F0F4" d="M87.6,41.5c0,0.1,0,0.2,0.2,0.2C87.7,41.6,87.7,41.5,87.6,41.5z"/>
<path fill="#E9F0F4" d="M59.8,40.6c0,0,0-0.1,0-0.2c-0.1,0-0.2,0-0.2,0.1C59.5,40.7,59.7,40.6,59.8,40.6z"/>
<path fill="#E9F0F4" d="M87.4,59.7c0,0,0.1,0,0.1-0.1C87.4,59.7,87.4,59.7,87.4,59.7z"/>
<path fill="#E9F0F4" d="M59.6,39.9c0.1,0,0.1,0.1,0.2,0.1c0-0.1,0-0.1,0-0.2C59.7,39.8,59.6,39.8,59.6,39.9z"/>
<path fill="#E9F0F4" d="M87.7,58.3C87.7,58.3,87.6,58.3,87.7,58.3C87.6,58.4,87.7,58.3,87.7,58.3z"/>
<path fill="#E9F0F4" d="M88,58c0,0,0.1,0,0.1-0.1C88.1,58,88,57.9,88,58z"/>
<path fill="#E9F0F4" d="M87.4,58.1c0.1,0,0.1,0,0.2-0.1C87.5,58.1,87.4,58.1,87.4,58.1z"/>
<path fill="#E9F0F4" d="M87.6,46.6c0,0,0,0.1,0.1,0.1C87.7,46.7,87.7,46.5,87.6,46.6z"/>
<path fill="#E9F0F4" d="M87.5,41.4C87.5,41.4,87.6,41.4,87.5,41.4C87.6,41.3,87.5,41.4,87.5,41.4z"/>
<path fill="#E9F0F4" d="M61.2,40.7c0.1,0,0.1,0,0.2,0c0-0.1,0-0.1,0-0.2c0,0-0.1,0-0.1,0C61.2,40.6,61.2,40.6,61.2,40.7z"/>
<path fill="#E9F0F4" d="M89,59.7c0-0.1,0-0.1,0-0.2c-0.1,0-0.1,0-0.2,0C88.8,59.7,88.8,59.7,89,59.7z"/>
<path fill="#E9F0F4" d="M88.7,52.6C88.7,52.6,88.7,52.6,88.7,52.6C88.7,52.6,88.7,52.5,88.7,52.6z"/>
<path fill="#E9F0F4" d="M87.9,39.8c-0.1,0.2,0.2,0.2,0.1,0.3c-0.6,0-1-0.2-1.5-0.1c0,0.1,0.1,0.1,0.1,0.1c-0.2,0-0.2,0.2-0.3,0.4
	c0.1,0.1,0.3,0.1,0.4,0.3c0-0.1,0.2,0.1,0.3,0c0.1,0.2,0,0.3-0.1,0.5c0.1,0,0.1,0.1,0.2,0.1c0-0.2,0-0.4,0.2-0.4
	c0,0.1,0,0.1,0.1,0.1c0-0.2-0.2-0.5,0-0.6c0.1,0.1,0.3,0.1,0.6,0.1c0-0.2,0.2-0.1,0.1-0.3c0.2,0.1,0.3-0.2,0.2-0.3
	C88.1,40,88,39.8,87.9,39.8z"/>
<path fill="#E9F0F4" d="M88.5,59c0,0.1,0.2,0.1,0.2,0C88.7,59,88.6,58.9,88.5,59z"/>
<path fill="#E9F0F4" d="M88.9,51C88.9,51.1,89,51,88.9,51C89,51,88.9,51,88.9,51z"/>
<path fill="#E9F0F4" d="M61,43.4c0,0,0.1,0,0.1-0.1C61.1,43.4,61,43.4,61,43.4z"/>
<path fill="#E9F0F4" d="M88.2,58.3c0,0.2-0.1,0.3,0.1,0.4C88.3,58.6,88.3,58.4,88.2,58.3z"/>
<path fill="#E9F0F4" d="M88.3,49c0,0.1,0,0.1,0,0.2c0,0,0.1,0,0.2,0C88.5,49.1,88.4,49,88.3,49z"/>
<path fill="#E9F0F4" d="M61,39.5c0,0.1,0,0.1,0,0.2C61.1,39.7,61.1,39.4,61,39.5z"/>
<path fill="#E9F0F4" d="M88.7,43.6c-0.2-0.2-0.4,0.1-0.3,0.3C88.7,43.8,88.7,43.8,88.7,43.6z"/>
<path fill="#E9F0F4" d="M68.8,59.5c0.2,0,0.2-0.1,0.2-0.3c0,0-0.1,0-0.2,0C68.8,59.3,68.8,59.4,68.8,59.5z"/>
<path fill="#E9F0F4" d="M43.3,39.3c0,0.1,0,0.1,0,0.2C43.4,39.5,43.4,39.2,43.3,39.3z"/>
<path fill="#E9F0F4" d="M43.2,37.9c0.1,0,0.1,0.1,0.2,0.1c0-0.1,0.1-0.1,0-0.3c-0.1,0-0.1,0-0.2,0C43.3,37.8,43.2,37.8,43.2,37.9z"
	/>
<path fill="#E9F0F4" d="M43.5,41.3C43.6,41.3,43.6,41.3,43.5,41.3C43.6,41.3,43.5,41.3,43.5,41.3z"/>
<path fill="#E9F0F4" d="M42.9,37.7C42.9,37.8,42.9,37.8,42.9,37.7c-0.1,0.1-0.1,0.1-0.1,0.2C43,37.9,43,37.7,42.9,37.7z"/>
<path fill="#E9F0F4" d="M43.7,38.8c0,0,0.1,0,0.1,0c0,0,0-0.1,0-0.1C43.8,38.7,43.7,38.7,43.7,38.8C43.7,38.7,43.7,38.7,43.7,38.8z"
	/>
<path fill="#E9F0F4" d="M79.7,57.2c0,0.1,0,0.1,0,0.2c0.1,0,0.1,0,0.2,0C79.9,57.3,79.9,57.2,79.7,57.2z"/>
<path fill="#E9F0F4" d="M69.6,39.8c0.1,0,0.3,0.1,0.2-0.1C69.7,39.7,69.7,39.7,69.6,39.8z"/>
<path fill="#E9F0F4" d="M70.2,43.5c-0.1,0-0.2,0-0.2,0.1C70.1,43.6,70.2,43.7,70.2,43.5z"/>
<path fill="#E9F0F4" d="M42.7,40c0,0,0.1,0,0.1,0C42.8,40,42.7,40,42.7,40z"/>
<path fill="#E9F0F4" d="M42.6,37.8c0,0.1-0.1,0.1-0.1,0.3C42.8,38.1,42.8,37.8,42.6,37.8z"/>
<path fill="#E9F0F4" d="M69.7,53.1c0,0.1,0.1,0,0.1,0C69.8,53.1,69.8,53.1,69.7,53.1z"/>
<path fill="#E9F0F4" d="M73,50.4C73,50.4,73.1,50.4,73,50.4C73,50.3,73,50.4,73,50.4z"/>
<path fill="#E9F0F4" d="M44.9,38.4C44.8,38.6,45.1,38.3,44.9,38.4L44.9,38.4z"/>
<path fill="#E9F0F4" d="M44.1,39.4c0,0,0.1,0,0.1,0c0,0,0-0.1,0-0.1c0,0-0.1,0-0.1,0C44.1,39.3,44.1,39.3,44.1,39.4z"/>
<path fill="#E9F0F4" d="M73.3,43.9c0,0,0.1,0,0.1-0.1C73.3,43.8,73.3,43.8,73.3,43.9z"/>
<path fill="#E9F0F4" d="M71.6,54.9c0,0,0.1,0,0.1,0c0-0.1,0.1-0.1,0.1-0.2c-0.1,0-0.1,0-0.2,0C71.6,54.8,71.6,54.8,71.6,54.9z"/>
<path fill="#E9F0F4" d="M72.1,45.4C72,45.7,72.3,45.5,72.1,45.4L72.1,45.4z"/>
<path fill="#E9F0F4" d="M44.5,39.8C44.5,39.8,44.6,39.7,44.5,39.8C44.5,39.7,44.5,39.7,44.5,39.8z"/>
<path fill="#E9F0F4" d="M89.3,49.9c0.2,0,0.2-0.1,0.2-0.3C89.3,49.5,89.1,49.8,89.3,49.9z"/>
<path fill="#E9F0F4" d="M67.7,46.3C67.8,46.3,67.8,46.3,67.7,46.3C67.8,46.2,67.7,46.3,67.7,46.3z"/>
<path fill="#E9F0F4" d="M67.6,42.6c0,0,0.1,0,0.1,0c0,0,0-0.1,0-0.1C67.7,42.5,67.6,42.5,67.6,42.6C67.6,42.6,67.6,42.6,67.6,42.6z"
	/>
<path fill="#E9F0F4" d="M69.8,39.1c-0.2,0-0.2,0-0.2,0.2C69.8,39.3,69.8,39.2,69.8,39.1z"/>
<path fill="#E9F0F4" d="M67.9,55.5C67.7,55.8,68.2,55.6,67.9,55.5L67.9,55.5z"/>
<path fill="#E9F0F4" d="M68.2,59.7c0,0.1,0.1,0,0.1,0C68.3,59.6,68.2,59.6,68.2,59.7z"/>
<path fill="#E9F0F4" d="M66.7,44.6c0,0,0.1,0,0.1,0C66.8,44.6,66.7,44.6,66.7,44.6z"/>
<path fill="#E9F0F4" d="M89.8,44.5c-0.1,0.1-0.1,0.3,0.1,0.4C89.9,44.9,89.9,44.5,89.8,44.5z"/>
<path fill="#E9F0F4" d="M39.8,40.6c0,0.1,0.1,0,0.1,0C39.9,40.5,39.9,40.5,39.8,40.6z"/>
<path fill="#E9F0F4" d="M66.4,49c0.1,0,0.1,0,0.2-0.1C66.5,48.9,66.4,48.9,66.4,49z"/>
<path fill="#E9F0F4" d="M67.1,41.3c0,0,0.1,0,0.1,0c0,0,0-0.1,0-0.1c0,0-0.1,0-0.1,0C67.1,41.2,67.1,41.2,67.1,41.3z"/>
<path fill="#E9F0F4" d="M67.1,41c0.1,0,0.2,0,0.2-0.2C67.2,40.8,67.1,40.8,67.1,41z"/>
<path fill="#E9F0F4" d="M67.5,42.4C67.5,42.4,67.5,42.4,67.5,42.4c0.1,0.1,0.1,0.1,0.2,0.1C67.6,42.4,67.6,42.4,67.5,42.4z"/>
<path fill="#E9F0F4" d="M68.9,49.2c0,0,0.1,0,0.1-0.1C69,49.2,68.9,49.2,68.9,49.2z"/>
<path fill="#E9F0F4" d="M69.1,38.5c0.1-0.1,0.3-0.4,0.1-0.5C69.2,38.1,68.9,38.3,69.1,38.5z"/>
<path fill="#E9F0F4" d="M69.2,49.4C69.2,49.5,69.3,49.4,69.2,49.4C69.2,49.4,69.2,49.4,69.2,49.4z"/>
<path fill="#E9F0F4" d="M69.1,49c0,0,0.1,0,0.1,0C69.2,48.9,69.1,48.9,69.1,49z"/>
<path fill="#E9F0F4" d="M69.4,59.3c0.2,0,0.2-0.1,0.2-0.2c-0.1,0-0.1,0-0.2,0C69.4,59.2,69.4,59.3,69.4,59.3z"/>
<path fill="#E9F0F4" d="M68.5,42.9c0,0.1-0.1,0.1-0.1,0.2c0.1,0,0.1,0,0.2,0C68.7,42.9,68.7,42.9,68.5,42.9z"/>
<path fill="#E9F0F4" d="M73.8,58.2c0,0-0.1,0-0.1,0c0,0,0,0.1,0,0.1c0,0,0.1,0,0.1,0C73.8,58.3,73.8,58.2,73.8,58.2z"/>
<path fill="#E9F0F4" d="M68.6,40c0,0-0.1,0-0.1,0c0,0,0,0.1,0,0.1c0,0,0.1,0,0.1,0C68.6,40,68.6,40,68.6,40z"/>
<path fill="#E9F0F4" d="M68.6,38.4c0.1,0,0.1,0,0.2,0c0-0.1,0-0.1,0-0.2c0,0-0.1,0-0.1,0C68.7,38.3,68.6,38.3,68.6,38.4z"/>
<path fill="#E9F0F4" d="M69.5,37.9c0.1,0,0,0.1,0.1,0.1c0.1,0,0.2-0.1,0.2-0.2c0.1,0,0.3-0.1,0.3-0.2C69.8,37.7,69.6,37.7,69.5,37.9
	z"/>
<path fill="#E9F0F4" d="M78.1,44.4c-0.1,0-0.1,0-0.2,0.1C78,44.5,78.1,44.5,78.1,44.4z"/>
<path fill="#E9F0F4" d="M50.3,41c0,0,0.1,0,0.1,0c0-0.1,0-0.1,0.1-0.1c-0.1,0-0.1-0.1-0.2,0C50.3,40.9,50.3,41,50.3,41z"/>
<path fill="#E9F0F4" d="M77.8,47.7C77.8,47.7,77.9,47.7,77.8,47.7C77.8,47.6,77.8,47.7,77.8,47.7z"/>
<path fill="#E9F0F4" d="M78.4,46.8c0,0-0.1,0-0.1,0c0,0.1,0,0.1,0,0.2c0,0,0.1,0,0.1,0C78.4,46.9,78.4,46.9,78.4,46.8z"/>
<path fill="#E9F0F4" d="M78.4,47.2C78.6,47.3,78.6,47,78.4,47.2L78.4,47.2z"/>
<path fill="#E9F0F4" d="M77.4,47.6c-0.1,0-0.1-0.1-0.1,0C77.3,47.7,77.4,47.7,77.4,47.6z"/>
<path fill="#E9F0F4" d="M78.5,59.3C78.5,59.4,78.6,59.4,78.5,59.3C78.6,59.3,78.5,59.3,78.5,59.3z"/>
<path fill="#E9F0F4" d="M77.1,49.8C77.1,49.8,77.2,49.8,77.1,49.8C77.1,49.7,77.1,49.8,77.1,49.8z"/>
<path fill="#E9F0F4" d="M50,40.9c0,0.1,0.1,0.2,0.2,0.2C50.2,40.9,50,40.8,50,40.9z"/>
<path fill="#E9F0F4" d="M49.9,39.1c0,0,0.1,0,0.1-0.1C49.9,39.1,49.9,39.1,49.9,39.1z"/>
<path fill="#E9F0F4" d="M77.6,57.2c-0.1,0-0.2,0-0.2,0.1c0.2,0.1-0.2,0.3,0.1,0.5C77.6,57.6,77.5,57.5,77.6,57.2z"/>
<path fill="#E9F0F4" d="M49.4,41.5c0,0.1,0,0.1-0.1,0.2c0.2,0,0.2,0.2,0.3,0C49.5,41.6,49.5,41.5,49.4,41.5z"/>
<path fill="#E9F0F4" d="M79.3,42c0.2,0,0.2-0.1,0.3-0.2C79.4,41.8,79.4,41.9,79.3,42z"/>
<path fill="#E9F0F4" d="M51.7,38.4c0,0,0.1,0,0.1,0c0,0,0-0.1,0-0.1C51.8,38.3,51.7,38.3,51.7,38.4C51.7,38.3,51.7,38.3,51.7,38.4z"
	/>
<path fill="#E9F0F4" d="M79.1,46.7c0.1,0.1,0.2,0.1,0.2-0.1C79.2,46.6,79.1,46.6,79.1,46.7z"/>
<path fill="#E9F0F4" d="M79.7,59.5C79.5,59.7,79.9,59.7,79.7,59.5L79.7,59.5z"/>
<path fill="#E9F0F4" d="M79.1,57.7c0-0.1,0.1-0.1,0.1-0.2c-0.1,0-0.1,0-0.2,0C79,57.6,79,57.7,79.1,57.7z"/>
<path fill="#E9F0F4" d="M78.7,53.2c0.1,0.1,0.2,0.1,0.2-0.1C78.8,53.1,78.7,53.1,78.7,53.2z"/>
<path fill="#E9F0F4" d="M78.6,50.9c0,0,0,0.1,0,0.1c0.1,0,0.1,0,0.2,0C78.8,50.9,78.7,50.9,78.6,50.9z"/>
<path fill="#E9F0F4" d="M79,58.5c0,0,0,0.1,0,0.2C79.2,58.8,79.2,58.5,79,58.5z"/>
<path fill="#E9F0F4" d="M78.8,44.5c-0.1,0.1-0.1,0.2,0.1,0.2C78.9,44.6,78.9,44.5,78.8,44.5z"/>
<path fill="#E9F0F4" d="M79.1,38.9c0-0.1,0.1-0.1,0-0.2c0,0-0.1,0-0.2,0C79,38.8,79,38.9,79.1,38.9z"/>
<path fill="#E9F0F4" d="M46.2,38.8C46.2,38.8,46.2,38.8,46.2,38.8c0.1,0.1,0.1,0.1,0.2,0.1C46.4,38.7,46.1,38.7,46.2,38.8z"/>
<path fill="#E9F0F4" d="M74.8,52.4c0.1,0,0.1,0.1,0.1,0C74.9,52.4,74.8,52.4,74.8,52.4z"/>
<path fill="#E9F0F4" d="M74.5,49.5c0,0,0,0.1,0,0.1c0.1,0,0.1,0,0.2,0C74.6,49.5,74.6,49.5,74.5,49.5z"/>
<path fill="#E9F0F4" d="M47.4,42C47.4,42.1,47.3,42.1,47.4,42c0,0.1,0,0.1,0,0.1c0-0.1,0-0.1,0.1-0.1C47.4,42.1,47.4,42,47.4,42z"/>
<path fill="#E9F0F4" d="M47,43.4c0,0.1,0.2,0.1,0.2,0C47.1,43.3,47,43.3,47,43.4z"/>
<path fill="#E9F0F4" d="M47.8,42.4C47.8,42.4,47.7,42.4,47.8,42.4C47.8,42.5,47.8,42.5,47.8,42.4z"/>
<path fill="#E9F0F4" d="M47.5,43.2c0,0.2,0.2,0.1,0.4,0.2c0-0.1,0.1-0.2,0.1-0.4C47.7,43,47.8,43.3,47.5,43.2z"/>
<path fill="#E9F0F4" d="M74.1,41.8C74.1,41.7,74.1,41.7,74.1,41.8C74,41.5,73.8,41.8,74.1,41.8z"/>
<path fill="#E9F0F4" d="M75.2,57.2c0,0.2,0.2,0.1,0.3,0.2C75.5,57.1,75.3,57.1,75.2,57.2z"/>
<path fill="#E9F0F4" d="M46.8,39.5c0,0,0.1,0,0.1-0.1C46.9,39.5,46.8,39.5,46.8,39.5z"/>
<path fill="#E9F0F4" d="M74.2,50.4c0,0,0.1,0,0.1,0C74.2,50.3,74.2,50.3,74.2,50.4z"/>
<path fill="#E9F0F4" d="M49.1,37.3c0.1,0,0.2-0.1,0.2-0.2c-0.1,0-0.2,0-0.2,0.1C49.1,37.2,49.1,37.2,49.1,37.3z"/>
<path fill="#E9F0F4" d="M76.4,44.1c0,0,0-0.1,0-0.2c-0.1,0-0.1,0-0.2,0C76.2,44.1,76.2,44.1,76.4,44.1z"/>
<path fill="#E9F0F4" d="M49,38.7c-0.1,0.1-0.2,0.2-0.1,0.4C49.1,39.2,49.2,38.7,49,38.7z"/>
<path fill="#E9F0F4" d="M48.7,42.9c0,0,0,0.1,0,0.1c0.1,0,0.1,0,0.1,0C48.8,43,48.8,42.9,48.7,42.9z"/>
<path fill="#E9F0F4" d="M76.3,49.8c0-0.1,0-0.2,0-0.3C76,49.5,76,49.9,76.3,49.8z"/>
<path fill="#E9F0F4" d="M49.1,42.5c0,0.1,0,0.1,0,0.2C49.2,42.7,49.2,42.4,49.1,42.5z"/>
<path fill="#E9F0F4" d="M49.1,42.1c-0.1,0-0.1,0.1-0.2,0.1c0,0-0.1,0.1-0.1,0.2C49.1,42.5,49.2,42.2,49.1,42.1z"/>
<path fill="#E9F0F4" d="M48.4,43.5C48.4,43.5,48.4,43.5,48.4,43.5C48.4,43.5,48.3,43.5,48.4,43.5z"/>
<path fill="#E9F0F4" d="M48.5,43.4C48.5,43.4,48.5,43.4,48.5,43.4c0.1-0.1,0.2-0.1,0.2-0.2c0,0-0.1,0-0.1,0
	C48.5,43.3,48.4,43.3,48.5,43.4z"/>
<path fill="#E9F0F4" d="M48.2,41.9c0,0.1-0.1,0.1,0,0.2C48.3,42.1,48.4,41.9,48.2,41.9z"/>
<path fill="#E9F0F4" d="M75.6,55.4c0,0.1,0.1,0,0.1,0C75.7,55.4,75.6,55.4,75.6,55.4z"/>
<path fill="#E9F0F4" d="M75.8,51c0.1,0,0.1,0.1,0.2,0.1C76,50.9,75.8,50.9,75.8,51z"/>
<path fill="#E9F0F4" d="M75.7,43.6c0,0-0.1,0-0.1,0c0,0,0,0.1,0,0.1c0,0,0.1,0,0.1,0C75.7,43.7,75.7,43.7,75.7,43.6z"/>
<path fill="#E9F0F4" d="M75.5,46.5C75.5,46.5,75.6,46.5,75.5,46.5C75.6,46.5,75.5,46.5,75.5,46.5z"/>
<path fill="#E9F0F4" d="M25.2,50.8c0,0,0.1,0,0.1,0C25.3,50.8,25.2,50.8,25.2,50.8z"/>
<path fill="#E9F0F4" d="M28.3,47.3C28.1,47.5,28.4,47.2,28.3,47.3L28.3,47.3z"/>
<path fill="#E9F0F4" d="M25.7,42.9C25.7,42.9,25.6,42.8,25.7,42.9C25.6,42.9,25.6,42.9,25.7,42.9z"/>
<path fill="#E9F0F4" d="M25.9,45.7C25.8,45.7,25.8,45.8,25.9,45.7C25.8,45.8,25.9,45.8,25.9,45.7z"/>
<path fill="#E9F0F4" d="M25.5,44.8c0-0.1,0.1-0.1,0.1-0.3c-0.2-0.1-0.4,0-0.4,0.2C25.3,44.7,25.3,44.9,25.5,44.8z"/>
<path fill="#E9F0F4" d="M25.8,50.6C25.7,50.6,25.7,50.6,25.8,50.6C25.7,50.7,25.8,50.6,25.8,50.6z"/>
<path fill="#E9F0F4" d="M25.5,50.4c0,0.1,0,0.1,0,0.2c-0.1-0.1-0.2,0-0.2,0.1c0.1,0,0.1,0,0.2,0C25.5,50.6,25.6,50.4,25.5,50.4z"/>
<path fill="#E9F0F4" d="M28.3,46.8C28.3,46.8,28.3,46.8,28.3,46.8C28.3,46.8,28.3,46.7,28.3,46.8z"/>
<path fill="#E9F0F4" d="M27.4,46.6c0,0-0.1,0-0.1,0.1C27.3,46.7,27.4,46.7,27.4,46.6z"/>
<path fill="#E9F0F4" d="M25.9,40.3c-0.1,0-0.2,0-0.2,0.1C25.8,40.4,25.8,40.3,25.9,40.3z"/>
<path fill="#E9F0F4" d="M28.2,40.1c0.1,0.2-0.2,0.1-0.2,0.3c0.2,0,0.3-0.1,0.5-0.1C28.5,40.1,28.3,40.2,28.2,40.1z"/>
<path fill="#E9F0F4" d="M27.3,50.1c0-0.1,0.1-0.1,0-0.2C27.3,50,27.2,50.1,27.3,50.1z"/>
<path fill="#E9F0F4" d="M25.9,42.3c0.2,0,0.1-0.1,0.2-0.2c-0.1,0-0.1,0-0.2,0C25.9,42.2,25.9,42.3,25.9,42.3z"/>
<path fill="#E9F0F4" d="M26,45.4C26,45.4,26.1,45.4,26,45.4C26,45.3,26,45.4,26,45.4z"/>
<path fill="#E9F0F4" d="M24.5,47c0,0-0.1,0-0.1,0c0,0,0,0.1,0,0.1c0,0,0.1,0,0.1,0C24.5,47.1,24.5,47.1,24.5,47z"/>
<path fill="#E9F0F4" d="M25.4,38.3c0,0.1-0.1,0-0.1,0.2C25.4,38.5,25.5,38.3,25.4,38.3z"/>
<path fill="#E9F0F4" d="M24.5,38.7C24.4,38.7,24.4,38.7,24.5,38.7C24.4,38.8,24.5,38.8,24.5,38.7z"/>
<path fill="#E9F0F4" d="M24.4,45.7c-0.1,0-0.1,0-0.2,0c0,0.1,0,0.1-0.1,0.2C24.2,45.9,24.4,45.9,24.4,45.7z"/>
<path fill="#E9F0F4" d="M24.1,44.1C24.1,44.1,24,44.1,24.1,44.1C24.1,44.1,24.1,44.1,24.1,44.1z"/>
<path fill="#E9F0F4" d="M46.9,44.7c-0.1,0-0.1,0-0.2,0c0,0.1-0.2,0.2,0,0.2C46.8,44.8,47,44.9,46.9,44.7z"/>
<path fill="#E9F0F4" d="M23.9,54.2C23.9,54.2,23.8,54.3,23.9,54.2C23.9,54.3,23.9,54.3,23.9,54.2z"/>
<path fill="#E9F0F4" d="M24,37.5c-0.1,0-0.2,0-0.2,0.1C23.9,37.6,24,37.6,24,37.5z"/>
<path fill="#E9F0F4" d="M31.8,52.8c0-0.1,0-0.1-0.1-0.2c0.1,0.1-0.2,0.2-0.1,0.3C31.6,52.8,31.7,52.8,31.8,52.8z"/>
<path fill="#E9F0F4" d="M31.5,42.9c0,0-0.1,0-0.1,0c0,0,0,0.1,0,0.1c0,0,0.1,0,0.1,0C31.5,42.9,31.5,42.9,31.5,42.9z"/>
<path fill="#E9F0F4" d="M30.4,54.7c0,0-0.1,0-0.1,0.1C30.3,54.8,30.4,54.8,30.4,54.7z"/>
<path fill="#E9F0F4" d="M30.6,41.5c0,0-0.1,0-0.1,0C30.6,41.6,30.6,41.6,30.6,41.5z"/>
<path fill="#E9F0F4" d="M30.6,47.1c0,0-0.1,0-0.1,0c0,0,0,0.1,0,0.1c0,0,0.1,0,0.1,0C30.6,47.2,30.6,47.1,30.6,47.1z"/>
<path fill="#E9F0F4" d="M28.7,37.5c0,0.1-0.2,0.2-0.1,0.2C28.6,37.6,28.8,37.5,28.7,37.5z"/>
<path fill="#E9F0F4" d="M28.4,40.5c0,0,0.1,0,0.1,0c0,0,0-0.1,0-0.1C28.5,40.4,28.4,40.4,28.4,40.5C28.4,40.4,28.4,40.4,28.4,40.5z"
	/>
<path fill="#E9F0F4" d="M27.8,51.8c0,0-0.1,0-0.1-0.1c-0.1,0-0.2,0.1-0.2,0.3C27.7,51.9,27.8,51.9,27.8,51.8z"/>
<path fill="#E9F0F4" d="M28,49C28,49,28,48.9,28,49C28,49,28,49,28,49z"/>
<path fill="#E9F0F4" d="M27.7,57.8c0.1,0,0.1,0,0.2,0c0-0.1,0-0.1-0.2-0.1C27.7,57.8,27.7,57.8,27.7,57.8z"/>
<path fill="#E9F0F4" d="M27.9,56.2C27.9,56.2,27.8,56.2,27.9,56.2C27.9,56.3,27.9,56.2,27.9,56.2z"/>
<path fill="#E9F0F4" d="M27.9,56.7c0.2,0,0.3-0.1,0.3-0.3C28,56.4,27.9,56.5,27.9,56.7z"/>
<path fill="#E9F0F4" d="M29.3,48.5c-0.1,0-0.2,0-0.2,0.1C29.2,48.7,29.3,48.6,29.3,48.5z"/>
<path fill="#E9F0F4" d="M29.4,46.4C29.4,46.4,29.3,46.5,29.4,46.4C29.4,46.5,29.4,46.5,29.4,46.4z"/>
<path fill="#E9F0F4" d="M28.9,51.2c0,0-0.1,0-0.1,0c0,0,0,0.1,0,0.1c0,0,0.1,0,0.1,0C28.9,51.3,28.9,51.3,28.9,51.2z"/>
<path fill="#E9F0F4" d="M29.1,43.6c0,0-0.1-0.1-0.2,0C28.9,43.7,29.2,43.7,29.1,43.6z"/>
<path fill="#E9F0F4" d="M29.4,44.7C29.4,44.7,29.3,44.7,29.4,44.7C29.4,44.7,29.4,44.7,29.4,44.7z"/>
<path fill="#E9F0F4" d="M23.6,39C23.6,38.9,23.5,38.9,23.6,39C23.5,39,23.5,39,23.6,39z"/>
<path fill="#E9F0F4" d="M23.3,39.9c0-0.1,0.1,0,0.1-0.1c-0.1,0-0.1-0.1-0.2-0.1C23.3,39.8,23.2,39.9,23.3,39.9z"/>
<path fill="#E9F0F4" d="M23.4,42.2c0,0,0.1,0,0.1-0.1C23.4,42.1,23.4,42.1,23.4,42.2z"/>
<path fill="#E9F0F4" d="M24.9,56C24.8,56,24.8,56,24.9,56c-0.1,0-0.1,0.1-0.1,0.1c0,0,0.1,0,0.1,0C24.9,56.1,24.9,56.1,24.9,56z"/>
<path fill="#E9F0F4" d="M25,48c-0.1,0-0.2,0-0.2,0.1C24.9,48.1,25,48,25,48z"/>
<path fill="#E9F0F4" d="M25.3,46.6c0.1,0,0.1,0,0.2,0C25.4,46.5,25.3,46.5,25.3,46.6z"/>
<path fill="#E9F0F4" d="M27.7,42.2c0,0-0.1,0-0.1,0c0,0,0,0.1,0,0.1c0,0,0.1,0,0.1,0C27.7,42.3,27.7,42.3,27.7,42.2z"/>
<path fill="#E9F0F4" d="M27.8,46.5C27.8,46.5,27.7,46.5,27.8,46.5C27.7,46.6,27.8,46.6,27.8,46.5z"/>
<path fill="#E9F0F4" d="M16.5,58.6c0,0.1,0,0.2,0.1,0.2C16.5,58.7,16.6,58.6,16.5,58.6z"/>
<path fill="#E9F0F4" d="M35,41.3C35,41.3,34.9,41.3,35,41.3C34.9,41.3,35,41.3,35,41.3z"/>
<path fill="#E9F0F4" d="M35,55.1C35.3,54.9,34.9,54.9,35,55.1L35,55.1z"/>
<path fill="#E9F0F4" d="M34.7,47.4c0.1,0,0.1,0,0.2-0.1C34.8,47.3,34.7,47.3,34.7,47.4z"/>
<path fill="#E9F0F4" d="M57.9,46.5c0,0,0,0.1,0,0.1c0.1,0,0.1,0,0.2,0C58,46.5,58,46.5,57.9,46.5z"/>
<path fill="#E9F0F4" d="M35,46.3c0,0-0.1,0-0.1,0c0,0,0,0.1,0,0.1C34.9,46.4,34.9,46.4,35,46.3C35,46.4,35,46.3,35,46.3z"/>
<path fill="#E9F0F4" d="M34.9,50.8c0,0,0.1,0,0.1,0c0-0.1,0.1-0.1,0.1-0.2c-0.1,0-0.1,0-0.2,0C34.9,50.7,34.9,50.7,34.9,50.8z"/>
<path fill="#E9F0F4" d="M57.5,44.2c0.1,0,0.1,0,0.2-0.1C57.6,44.1,57.5,44.1,57.5,44.2z"/>
<path fill="#E9F0F4" d="M35.9,51.8C35.9,51.9,35.9,51.9,35.9,51.8c-0.1,0.1-0.1,0.1-0.1,0.2C36,52.1,36,51.8,35.9,51.8z"/>
<path fill="#E9F0F4" d="M34.6,39.5c0,0,0.1,0,0.1-0.1C34.6,39.5,34.6,39.5,34.6,39.5z"/>
<path fill="#E9F0F4" d="M34.6,53.9C34.6,54,34.6,54,34.6,53.9C34.6,53.9,34.6,53.9,34.6,53.9z"/>
<path fill="#E9F0F4" d="M34.6,49.1c0,0-0.1,0-0.1,0.1C34.6,49.1,34.6,49.1,34.6,49.1z"/>
<path fill="#E9F0F4" d="M57.4,46.4C57.4,46.4,57.5,46.4,57.4,46.4C57.4,46.4,57.4,46.4,57.4,46.4z"/>
<path fill="#E9F0F4" d="M34.7,43.6c0-0.1-0.1-0.1-0.1,0C34.6,43.7,34.7,43.7,34.7,43.6z"/>
<path fill="#E9F0F4" d="M58.5,46.1c-0.2-0.1-0.4,0.2-0.3,0.4c0-0.1,0.1-0.1,0.3-0.1C58.5,46.3,58.5,46.2,58.5,46.1z"/>
<path fill="#E9F0F4" d="M34.8,37.7c-0.1,0-0.2,0-0.3,0.1c0,0,0,0.1,0,0.2c0.1,0,0.2,0,0.3,0C34.8,37.9,34.8,37.8,34.8,37.7z"/>
<path fill="#E9F0F4" d="M35.2,53.3c0.1,0,0.2,0,0.2-0.1C35.3,53.2,35.2,53.3,35.2,53.3z"/>
<path fill="#E9F0F4" d="M58.4,47c0.1,0,0.1,0,0.2-0.1C58.5,46.9,58.4,46.9,58.4,47z"/>
<path fill="#E9F0F4" d="M35.6,43.8c-0.1,0-0.2,0.1-0.2,0.2c0.1,0,0.1,0,0.2,0C35.6,43.9,35.6,43.8,35.6,43.8z"/>
<path fill="#E9F0F4" d="M35.3,49.2c0,0-0.1,0-0.1,0c0,0,0,0.1,0,0.1c0,0,0.1,0,0.1,0C35.3,49.3,35.3,49.2,35.3,49.2z"/>
<path fill="#E9F0F4" d="M35.6,54.8C35.6,54.8,35.6,54.8,35.6,54.8C35.6,54.9,35.7,54.8,35.6,54.8z"/>
<path fill="#E9F0F4" d="M35.4,54.7C35.3,54.9,35.6,54.6,35.4,54.7L35.4,54.7z"/>
<path fill="#E9F0F4" d="M35.5,52.7c-0.1,0-0.2,0-0.2,0.2C35.5,52.9,35.5,52.9,35.5,52.7z"/>
<path fill="#E9F0F4" d="M35.5,48.9c0-0.1-0.1-0.1-0.1,0C35.4,48.9,35.5,48.9,35.5,48.9z"/>
<path fill="#E9F0F4" d="M57.8,47.3c0.1,0,0.2-0.1,0.3-0.1c0-0.1,0-0.2,0-0.3C57.8,47,57.8,47.1,57.8,47.3z"/>
<path fill="#E9F0F4" d="M33.5,47.2c0.1,0,0.2-0.1,0.2-0.2C33.6,47.1,33.5,47.1,33.5,47.2z"/>
<path fill="#E9F0F4" d="M55.7,50.2c0.1,0,0.2-0.1,0.2-0.2c-0.1,0-0.1,0-0.2,0C55.8,50.1,55.7,50.1,55.7,50.2z"/>
<path fill="#E9F0F4" d="M32.9,53.7c0,0-0.1,0-0.1,0.1C32.9,53.7,32.9,53.7,32.9,53.7z"/>
<path fill="#E9F0F4" d="M56.2,49.6c0,0,0,0.1,0,0.1c0.1,0,0.1,0,0.2,0C56.4,49.6,56.3,49.6,56.2,49.6z"/>
<path fill="#E9F0F4" d="M33.6,43.3c0-0.1-0.1-0.1-0.1,0C33.5,43.3,33.6,43.3,33.6,43.3z"/>
<path fill="#E9F0F4" d="M56,46.1c0.1,0.1,0.2,0,0.2-0.2C56.1,45.9,56,46,56,46.1z"/>
<path fill="#E9F0F4" d="M32.8,39.4c-0.1,0-0.2,0.1-0.2,0.2C32.8,39.6,32.8,39.5,32.8,39.4z"/>
<path fill="#E9F0F4" d="M32.9,52.1C32.9,52.1,32.8,52.2,32.9,52.1C32.8,52.2,32.9,52.2,32.9,52.1z"/>
<path fill="#E9F0F4" d="M32.6,48.2C32.6,48.2,32.6,48.2,32.6,48.2C32.6,48.2,32.5,48.2,32.6,48.2z"/>
<path fill="#E9F0F4" d="M32.5,45.4c0.2,0,0.2,0,0.2-0.2C32.5,45.2,32.5,45.3,32.5,45.4z"/>
<path fill="#E9F0F4" d="M32.7,51.5c0,0.1,0,0.1,0,0.2C32.9,51.8,32.9,51.5,32.7,51.5z"/>
<path fill="#E9F0F4" d="M56.3,47.6c0,0.1-0.1,0.1-0.1,0.3c0.1,0,0.1,0,0.2,0C56.4,47.8,56.5,47.6,56.3,47.6z"/>
<path fill="#E9F0F4" d="M56.8,50c0.1,0,0.1,0,0.1,0c0-0.1,0-0.1,0.1-0.1c-0.1,0-0.1,0-0.1-0.1C56.8,49.9,56.8,49.9,56.8,50z"/>
<path fill="#E9F0F4" d="M34.4,52.7C34.4,52.8,34.5,52.7,34.4,52.7C34.5,52.7,34.4,52.7,34.4,52.7z"/>
<path fill="#E9F0F4" d="M34,51.7C34,51.7,33.9,51.7,34,51.7C34,51.8,34.1,51.7,34,51.7z"/>
<path fill="#E9F0F4" d="M34.2,37.4C34.2,37.4,34.2,37.4,34.2,37.4C34.2,37.3,34.2,37.3,34.2,37.4z"/>
<path fill="#E9F0F4" d="M34.4,42.1C34.4,42.1,34.5,42.1,34.4,42.1C34.5,42,34.4,42.1,34.4,42.1z"/>
<path fill="#E9F0F4" d="M33.6,59.3c0,0,0.1,0,0.1,0c0,0,0-0.1,0-0.1c0,0-0.1,0-0.1,0C33.6,59.2,33.6,59.3,33.6,59.3z"/>
<path fill="#E9F0F4" d="M33.5,37.6c0-0.1-0.1-0.1-0.1,0C33.4,37.7,33.5,37.7,33.5,37.6z"/>
<path fill="#E9F0F4" d="M33.6,54.9c0.1,0,0.2-0.1,0.2-0.3C33.6,54.7,33.6,54.9,33.6,54.9z"/>
<path fill="#E9F0F4" d="M33.5,49C33.6,49.1,33.6,48.8,33.5,49L33.5,49z"/>
<path fill="#E9F0F4" d="M33.7,52.3c0-0.1,0.1-0.1,0.2-0.2C33.7,52.1,33.6,52.2,33.7,52.3z"/>
<path fill="#E9F0F4" d="M33.9,50.4C33.9,50.4,33.8,50.5,33.9,50.4C33.9,50.5,34,50.5,33.9,50.4z"/>
<path fill="#E9F0F4" d="M33.9,59.8C33.9,59.9,34,59.8,33.9,59.8C33.9,59.8,33.8,59.8,33.9,59.8z"/>
<path fill="#E9F0F4" d="M36.4,55.5C36.4,55.5,36.5,55.5,36.4,55.5C36.4,55.4,36.4,55.5,36.4,55.5z"/>
<path fill="#E9F0F4" d="M61,45.7C61,45.7,61,45.7,61,45.7C61,45.6,60.9,45.7,61,45.7z"/>
<path fill="#E9F0F4" d="M37.8,52.3c0,0,0.1,0,0.1-0.1C37.8,52.3,37.8,52.2,37.8,52.3z"/>
<path fill="#E9F0F4" d="M37.2,47.6C37.1,47.8,37.4,47.5,37.2,47.6L37.2,47.6z"/>
<path fill="#E9F0F4" d="M38.2,40.2c0,0.1,0.1,0.1,0.1,0C38.3,40.2,38.3,40.1,38.2,40.2z"/>
<path fill="#E9F0F4" d="M37.6,57.2C37.6,57.2,37.7,57.2,37.6,57.2C37.7,57.1,37.6,57.2,37.6,57.2z"/>
<path fill="#E9F0F4" d="M37.5,42c-0.1,0.1-0.2,0.1-0.2,0.3c0.1,0.1,0.3,0.1,0.4,0C37.7,42.1,37.7,42,37.5,42z"/>
<path fill="#E9F0F4" d="M37.6,39.3c-0.2,0-0.3,0-0.3,0.3C37.5,39.6,37.6,39.5,37.6,39.3z"/>
<path fill="#E9F0F4" d="M60.3,44.7c0,0.1,0.1,0,0.1,0C60.4,44.7,60.3,44.7,60.3,44.7z"/>
<path fill="#E9F0F4" d="M38.4,51.7c0,0,0.1,0,0.1-0.1C38.4,51.7,38.4,51.6,38.4,51.7z"/>
<path fill="#E9F0F4" d="M37.4,54.2c0.1,0,0.2,0,0.2-0.1c0,0-0.1,0-0.1,0C37.5,54.2,37.4,54.2,37.4,54.2z"/>
<path fill="#E9F0F4" d="M61.1,47.2C61.1,47.2,61.2,47.2,61.1,47.2C61.1,47.1,61.1,47.2,61.1,47.2z"/>
<path fill="#E9F0F4" d="M38.5,39.1c0,0.1-0.1,0.1-0.1,0.2c0.1,0,0.2,0,0.3,0C38.7,39.1,38.7,39.1,38.5,39.1z"/>
<path fill="#E9F0F4" d="M38.9,37.1c0.1,0,0.1,0,0.2,0c0-0.1,0-0.1,0-0.2c0,0-0.1,0-0.2,0C38.9,37,38.9,37.1,38.9,37.1z"/>
<path fill="#E9F0F4" d="M61.7,49.6C61.7,49.7,61.8,49.6,61.7,49.6C61.7,49.6,61.7,49.6,61.7,49.6z"/>
<path fill="#E9F0F4" d="M39.4,50.6c0-0.1,0-0.1-0.1-0.2C39.2,50.6,39.2,50.7,39.4,50.6z"/>
<path fill="#E9F0F4" d="M39.2,50.7c0,0,0.1,0,0.1-0.1C39.3,50.7,39.2,50.7,39.2,50.7z"/>
<path fill="#E9F0F4" d="M38.7,51.2C38.7,51.2,38.6,51.2,38.7,51.2C38.6,51.3,38.7,51.2,38.7,51.2z"/>
<path fill="#E9F0F4" d="M38.7,51.4c0,0-0.1,0-0.1,0c0,0.1-0.1,0.1,0,0.2c0,0,0.1,0,0.1,0C38.7,51.5,38.7,51.5,38.7,51.4z"/>
<path fill="#E9F0F4" d="M38.5,48.4c0-0.1,0.1,0,0.1-0.2C38.5,48.2,38.4,48.4,38.5,48.4z"/>
<path fill="#E9F0F4" d="M38.7,55.6c0,0.1,0.1,0,0.1,0C38.8,55.5,38.7,55.5,38.7,55.6z"/>
<path fill="#E9F0F4" d="M36.5,45c0-0.1-0.1-0.1-0.1,0C36.4,45,36.4,45,36.5,45z"/>
<path fill="#E9F0F4" d="M36.6,42.9C36.6,43,36.7,43,36.6,42.9C36.7,42.9,36.6,42.9,36.6,42.9z"/>
<path fill="#E9F0F4" d="M36.1,48.7C36.1,48.7,36,48.8,36.1,48.7C36,48.8,36.1,48.8,36.1,48.7z"/>
<path fill="#E9F0F4" d="M36.1,45.9C36.1,45.9,36,45.9,36.1,45.9C36,45.9,36.1,45.9,36.1,45.9z"/>
<path fill="#E9F0F4" d="M58.8,46.2c-0.1,0.1-0.1,0.3-0.2,0.4c0.1,0,0.2,0,0.3,0C58.8,46.5,59,46.2,58.8,46.2z"/>
<path fill="#E9F0F4" d="M37.2,54.7c0,0.1,0,0.1,0,0.2c0,0,0-0.1,0.1-0.1C37.3,54.7,37.3,54.7,37.2,54.7z"/>
<path fill="#E9F0F4" d="M36.7,54.5c0.1,0,0.2-0.1,0.1-0.1C36.8,54.4,36.7,54.4,36.7,54.5z"/>
<path fill="#E9F0F4" d="M36.6,54.2C36.6,54.2,36.6,54.3,36.6,54.2C36.6,54.3,36.7,54.3,36.6,54.2z"/>
<path fill="#E9F0F4" d="M36.2,43.9C36.2,43.9,36.2,43.9,36.2,43.9C36.2,44,36.2,44,36.2,43.9z"/>
<path fill="#E9F0F4" d="M58.9,47c0.2,0,0.4,0,0.5-0.1C59.1,46.9,58.9,46.8,58.9,47z"/>
<path fill="#E9F0F4" d="M36.2,41.2C36.1,41.3,36.4,41.1,36.2,41.2L36.2,41.2z"/>
<path fill="#E9F0F4" d="M59,46.5c0.1,0,0.2-0.1,0.2-0.2C59,46.3,58.9,46.4,59,46.5z"/>
<path fill="#E9F0F4" d="M36.2,44c0,0-0.1,0-0.1,0c0,0,0,0.1,0,0.1c0,0,0.1,0,0.1,0C36.2,44.1,36.2,44.1,36.2,44z"/>
<path fill="#E9F0F4" d="M36.4,41.7c0.1,0.1,0.2,0.1,0.3,0C36.8,41.5,36.4,41.4,36.4,41.7z"/>
<path fill="#E9F0F4" d="M59.7,49.6c0.1,0,0.2-0.1,0.3-0.2C59.8,49.4,59.7,49.4,59.7,49.6z"/>
<path fill="#E9F0F4" d="M59.7,44.5C59.7,44.5,59.8,44.5,59.7,44.5C59.7,44.5,59.7,44.5,59.7,44.5z"/>
<path fill="#E9F0F4" d="M36.9,56.6c0,0-0.1,0-0.1,0C36.8,56.7,36.9,56.7,36.9,56.6z"/>
<path fill="#E9F0F4" d="M37,47.5C37,47.5,37,47.5,37,47.5C37,47.5,37.1,47.5,37,47.5z"/>
<path fill="#E9F0F4" d="M37.1,49.7c0,0-0.1,0-0.1,0c0,0,0,0.1,0,0.1c0,0,0.1,0,0.1,0C37.1,49.8,37.1,49.7,37.1,49.7z"/>
<path fill="#E9F0F4" d="M37,58c0,0.1,0.1,0,0.1,0C37.1,57.9,37,57.9,37,58z"/>
<path fill="#E9F0F4" d="M36.4,52C36.4,52,36.3,52.1,36.4,52C36.3,52.1,36.4,52.1,36.4,52z"/>
<path fill="#E9F0F4" d="M59.5,47.3c0.2,0,0.2-0.1,0.2-0.2c0,0-0.1,0-0.2,0C59.5,47.2,59.4,47.2,59.5,47.3z"/>
<path fill="#E9F0F4" d="M59.4,48.1c0.2,0,0.2-0.1,0.2-0.3C59.3,47.9,59.3,48,59.4,48.1z"/>
<path fill="#E9F0F4" d="M36.5,41.1C36.5,41.1,36.5,41.1,36.5,41.1C36.5,41.1,36.6,41.1,36.5,41.1z"/>
<path fill="#E9F0F4" d="M26,54.3c0,0,0.1,0,0.1,0c0,0,0-0.1,0-0.1C26,54.2,26,54.2,26,54.3C26,54.2,26,54.3,26,54.3z"/>
<path fill="#E9F0F4" d="M26.8,47.7c0,0,0.1,0,0.1-0.1C26.9,47.7,26.8,47.7,26.8,47.7z"/>
<path fill="#E9F0F4" d="M48.9,45.3C48.8,45.5,49.1,45.2,48.9,45.3L48.9,45.3z"/>
<path fill="#E9F0F4" d="M26.9,37.6C26.9,37.6,26.9,37.6,26.9,37.6C26.9,37.6,26.8,37.6,26.9,37.6z"/>
<path fill="#E9F0F4" d="M50.1,46.5C50.1,46.5,50.2,46.5,50.1,46.5C50.1,46.4,50.1,46.5,50.1,46.5z"/>
<path fill="#E9F0F4" d="M27.2,52.8c0,0.1-0.2,0-0.2,0.2C27.2,53,27.3,52.9,27.2,52.8z"/>
<path fill="#E9F0F4" d="M26.2,40.3C26.2,40.3,26.2,40.3,26.2,40.3C26.2,40.3,26.1,40.3,26.2,40.3z"/>
<path fill="#E9F0F4" d="M26.2,45.6c0.1,0,0.2,0,0.2-0.1C26.3,45.5,26.3,45.5,26.2,45.6C26.3,45.5,26.2,45.5,26.2,45.6z"/>
<path fill="#E9F0F4" d="M26.1,49.4C26.1,49.4,26.1,49.4,26.1,49.4C26.1,49.3,26,49.4,26.1,49.4z"/>
<path fill="#E9F0F4" d="M49.3,46.3c0,0,0.1,0,0.1,0C49.4,46.2,49.3,46.2,49.3,46.3z"/>
<path fill="#E9F0F4" d="M27.2,57.6c0,0.1-0.1,0.1-0.1,0.3c0.1,0,0.2-0.1,0.3-0.2C27.3,57.6,27.3,57.6,27.2,57.6z"/>
<path fill="#E9F0F4" d="M28.7,56.4c0.1,0,0.2-0.1,0.2-0.2C28.7,56.2,28.7,56.3,28.7,56.4z"/>
<path fill="#E9F0F4" d="M51.4,50.4C51.5,50.4,51.5,50.4,51.4,50.4C51.5,50.3,51.4,50.4,51.4,50.4z"/>
<path fill="#E9F0F4" d="M51.5,50.2c0,0.1,0.1,0.1,0.1,0C51.6,50.2,51.6,50.2,51.5,50.2z"/>
<path fill="#E9F0F4" d="M29.1,57.9c-0.1,0-0.2,0.1-0.2,0.3C29.1,58.2,29.1,58.1,29.1,57.9z"/>
<path fill="#E9F0F4" d="M51.9,49.5C51.9,49.5,52,49.5,51.9,49.5C51.9,49.4,51.9,49.5,51.9,49.5z"/>
<path fill="#E9F0F4" d="M28.3,57.1c0.2,0,0.2-0.1,0.3-0.2C28.4,56.9,28.4,57,28.3,57.1z"/>
<path fill="#E9F0F4" d="M27.3,58.7c0.2,0.1,0.4,0,0.4-0.3C27.4,58.4,27.3,58.5,27.3,58.7z"/>
<path fill="#E9F0F4" d="M50.9,45c-0.3,0-0.4,0-0.4,0.3C50.8,45.3,51,45.2,50.9,45z"/>
<path fill="#E9F0F4" d="M50.2,46.4c0.2,0,0.3-0.1,0.3-0.3C50.3,46.1,50.3,46.3,50.2,46.4z"/>
<path fill="#E9F0F4" d="M50.8,46c0.1-0.1,0.3-0.1,0.3-0.4C50.9,45.5,50.6,45.9,50.8,46z"/>
<path fill="#E9F0F4" d="M51.1,48.1C51.2,48.1,51.2,48.1,51.1,48.1C51.2,48,51.1,48.1,51.1,48.1z"/>
<path fill="#E9F0F4" d="M28.2,57.7c0.1,0,0.2-0.1,0.3-0.2c-0.1,0-0.1-0.1-0.2-0.1C28.3,57.6,28.2,57.6,28.2,57.7z"/>
<path fill="#E9F0F4" d="M24.8,54.2C24.8,54.2,24.7,54.3,24.8,54.2C24.8,54.3,24.8,54.3,24.8,54.2z"/>
<path fill="#E9F0F4" d="M23.5,42c0,0.1,0,0.2,0.1,0.2C23.7,42.1,23.7,42,23.5,42z"/>
<path fill="#E9F0F4" d="M47.4,47c0,0,0.2-0.2,0.1-0.2C47.4,46.9,47.2,47,47.4,47z"/>
<path fill="#E9F0F4" d="M23.5,50.9c0-0.1,0.2-0.1,0.1-0.2C23.6,50.8,23.4,50.9,23.5,50.9z"/>
<path fill="#E9F0F4" d="M46.2,50.6c0.2,0,0.2-0.1,0.3-0.2C46.3,50.5,46.2,50.5,46.2,50.6z"/>
<path fill="#E9F0F4" d="M24.2,53.9C24.2,53.9,24.2,53.9,24.2,53.9C24.3,53.9,24.2,53.8,24.2,53.9z"/>
<path fill="#E9F0F4" d="M46.7,50.5c0.2,0,0.4-0.2,0.3-0.3C46.8,50.2,46.7,50.4,46.7,50.5z"/>
<path fill="#E9F0F4" d="M22.9,37.5c0-0.1,0.1-0.1,0.1-0.2c-0.1,0-0.1,0-0.2,0C22.9,37.4,22.8,37.5,22.9,37.5z"/>
<path fill="#E9F0F4" d="M22.9,39.8c0,0,0.1,0,0.1-0.1C22.9,39.7,22.9,39.7,22.9,39.8z"/>
<path fill="#E9F0F4" d="M24.3,53.4C24.3,53.5,24.3,53.5,24.3,53.4C24.3,53.4,24.3,53.4,24.3,53.4z"/>
<path fill="#E9F0F4" d="M23.3,60C23.3,60.1,23.3,60.1,23.3,60C23.3,60,23.3,60,23.3,60z"/>
<path fill="#E9F0F4" d="M46.1,48.6C46.1,48.6,46.2,48.6,46.1,48.6C46.1,48.5,46.1,48.6,46.1,48.6z"/>
<path fill="#E9F0F4" d="M23.3,39.5c-0.1,0-0.2,0-0.2,0.2C23.2,39.7,23.3,39.7,23.3,39.5z"/>
<path fill="#E9F0F4" d="M48.5,45.3c0,0-0.1,0-0.1,0c0,0,0,0.1,0,0.1c0,0,0.1,0,0.1,0C48.5,45.3,48.5,45.3,48.5,45.3z"/>
<path fill="#E9F0F4" d="M48,48.4c0.2,0,0.3-0.1,0.3-0.4C48.1,48,48.1,48.3,48,48.4z"/>
<path fill="#E9F0F4" d="M47.6,47.6c0.1,0,0.1,0,0.2-0.1C47.7,47.5,47.6,47.5,47.6,47.6z"/>
<path fill="#E9F0F4" d="M24.9,51.5c0,0,0.1,0,0.1,0c0,0,0-0.1,0-0.1c0,0-0.1,0-0.1,0C24.9,51.4,24.9,51.5,24.9,51.5z"/>
<path fill="#E9F0F4" d="M25.2,49c-0.1,0-0.2,0.1-0.2,0.2C25.1,49.2,25.2,49.2,25.2,49z"/>
<path fill="#E9F0F4" d="M47.2,47.3C47.1,47.4,47.4,47.1,47.2,47.3L47.2,47.3z"/>
<path fill="#E9F0F4" d="M48.5,49.1c0.1-0.1,0.4,0,0.3-0.3C48.6,48.6,48.3,48.9,48.5,49.1z"/>
<path fill="#E9F0F4" d="M39.4,57.8C39.4,57.9,39.5,57.8,39.4,57.8C39.4,57.8,39.4,57.8,39.4,57.8z"/>
<path fill="#E9F0F4" d="M24.6,53.6c0,0-0.1,0-0.1,0c0,0.1,0,0.1-0.1,0.1C24.5,53.7,24.6,53.7,24.6,53.6z"/>
<path fill="#E9F0F4" d="M24.6,59.9C24.6,59.9,24.7,59.9,24.6,59.9C24.6,59.8,24.6,59.9,24.6,59.9z"/>
<path fill="#E9F0F4" d="M51.9,45.3c0,0,0.1,0,0.1-0.1C52,45.3,51.9,45.3,51.9,45.3z"/>
<path fill="#E9F0F4" d="M24.3,53.9C24.5,54.1,24.5,53.8,24.3,53.9L24.3,53.9z"/>
<path fill="#E9F0F4" d="M30.8,38.2C30.8,38.2,30.7,38.2,30.8,38.2C30.7,38.3,30.8,38.3,30.8,38.2z"/>
<path fill="#E9F0F4" d="M32,48.3C31.9,48.5,32.2,48.2,32,48.3L32,48.3z"/>
<path fill="#E9F0F4" d="M31.8,56.6c0,0,0.1,0,0.1-0.1C31.8,56.6,31.8,56.5,31.8,56.6z"/>
<path fill="#E9F0F4" d="M31.9,45.2c0,0,0.1,0,0.1-0.1C31.9,45.2,31.9,45.2,31.9,45.2z"/>
<path fill="#E9F0F4" d="M31.7,53c0,0,0.1,0,0.1-0.1C31.7,53,31.7,53,31.7,53z"/>
<path fill="#E9F0F4" d="M32,53.2C31.9,53.4,32.2,53.1,32,53.2L32,53.2z"/>
<path fill="#E9F0F4" d="M32,40.5C31.8,40.7,32.1,40.4,32,40.5L32,40.5z"/>
<path fill="#E9F0F4" d="M31.8,49c0,0,0.1,0,0.1,0c0-0.1,0.1-0.1,0.1-0.2c0,0-0.1,0-0.1,0C31.8,49,31.8,49,31.8,49z"/>
<path fill="#E9F0F4" d="M31.5,50.4c0,0-0.1,0-0.1,0.1C31.4,50.4,31.5,50.4,31.5,50.4z"/>
<path fill="#E9F0F4" d="M31.6,53.4c0,0,0.1,0,0.1,0c0,0,0-0.1,0-0.1c0,0-0.1,0-0.1,0C31.6,53.3,31.6,53.4,31.6,53.4z"/>
<path fill="#E9F0F4" d="M31.4,37.6C31.4,37.6,31.3,37.6,31.4,37.6C31.4,37.6,31.4,37.6,31.4,37.6z"/>
<path fill="#E9F0F4" d="M54.3,46C54.2,46.2,54.5,45.9,54.3,46L54.3,46z"/>
<path fill="#E9F0F4" d="M31.5,53.1c0,0.1,0,0.1,0.1,0.2C31.6,53,31.7,53,31.5,53.1z"/>
<path fill="#E9F0F4" d="M54.4,44.2C54.3,44.3,54.6,44.1,54.4,44.2L54.4,44.2z"/>
<path fill="#E9F0F4" d="M33.3,37.8C33.3,37.8,33.2,37.8,33.3,37.8C33.3,37.8,33.3,37.8,33.3,37.8z"/>
<path fill="#E9F0F4" d="M33.2,38.2c0,0-0.1,0-0.1,0c0,0.1-0.1,0.1-0.1,0.1C33.1,38.4,33.2,38.4,33.2,38.2
	C33.2,38.3,33.2,38.3,33.2,38.2z"/>
<path fill="#E9F0F4" d="M33.2,41c0-0.1,0.2,0,0.1-0.2C33.1,40.7,33.1,40.9,33.2,41z"/>
<path fill="#E9F0F4" d="M31.8,37.9c0.3,0,0.4-0.1,0.4-0.3C31.9,37.6,31.8,37.7,31.8,37.9z"/>
<path fill="#E9F0F4" d="M32.9,48.6C32.9,48.6,32.8,48.6,32.9,48.6C32.9,48.7,32.9,48.6,32.9,48.6z"/>
<path fill="#E9F0F4" d="M32.9,56.7c0.3,0,0.3-0.1,0.4-0.4C33,56.2,32.8,56.5,32.9,56.7z"/>
<path fill="#E9F0F4" d="M30.1,55.9C30.1,55.9,30.2,55.9,30.1,55.9C30.2,55.8,30.1,55.9,30.1,55.9z"/>
<path fill="#E9F0F4" d="M30.2,38.4C30.2,38.4,30.2,38.4,30.2,38.4C30.2,38.3,30.2,38.3,30.2,38.4z"/>
<path fill="#E9F0F4" d="M29.2,58.7c0.2,0.1,0.4-0.3,0.2-0.3C29.3,58.5,29.2,58.5,29.2,58.7z"/>
<path fill="#E9F0F4" d="M52.1,44.8c0-0.1,0.1-0.1,0.1-0.2c0,0-0.1,0-0.2,0C52,44.7,52,44.8,52.1,44.8z"/>
<path fill="#E9F0F4" d="M52.5,46.7c-0.1-0.2,0.1-0.1,0.2-0.3c-0.1,0-0.1,0-0.2,0C52.5,46.6,52.4,46.7,52.5,46.7z"/>
<path fill="#E9F0F4" d="M29.6,57.2c-0.1,0.2-0.1,0.2-0.2,0.3c0,0,0.1,0,0.1,0.1c0,0-0.2,0.1-0.2,0.2c0.4,0.2,0.2-0.3,0.4-0.4
	C29.7,57.3,29.8,57.2,29.6,57.2z"/>
<path fill="#E9F0F4" d="M52.5,45.2C52.6,45.2,52.6,45.2,52.5,45.2C52.6,45.2,52.5,45.2,52.5,45.2z"/>
<path fill="#E9F0F4" d="M29.6,58.5C29.6,58.5,29.6,58.5,29.6,58.5C29.6,58.4,29.5,58.5,29.6,58.5z"/>
<path fill="#E9F0F4" d="M29.4,58.8C29.4,58.9,29.5,58.8,29.4,58.8C29.5,58.8,29.4,58.8,29.4,58.8z"/>
<path fill="#E9F0F4" d="M31,55.2C31,55.2,31.1,55.2,31,55.2C31.1,55.1,31,55.2,31,55.2z"/>
<path fill="#E9F0F4" d="M31,50.2c-0.1,0-0.1,0.1,0,0.1c0.1-0.1,0.3-0.1,0.3-0.4c-0.2,0-0.2,0.1-0.3,0C30.9,50.1,31,50.1,31,50.2z"/>
<path fill="#E9F0F4" d="M31.1,55.3c0,0,0.1,0,0.1,0c0,0,0-0.1,0-0.1c0,0-0.1,0-0.1,0C31.1,55.3,31.1,55.3,31.1,55.3z"/>
<path fill="#E9F0F4" d="M31.1,49.5C31.1,49.5,31.1,49.5,31.1,49.5c-0.1,0.1-0.1,0.1-0.1,0.2C31.2,49.7,31.2,49.5,31.1,49.5z"/>
<path fill="#E9F0F4" d="M30.8,50.2C30.8,50.3,30.9,50.2,30.8,50.2C30.9,50.2,30.8,50.2,30.8,50.2z"/>
<path fill="#E9F0F4" d="M30.5,54.6C30.5,54.7,30.6,54.6,30.5,54.6C30.6,54.6,30.5,54.6,30.5,54.6z"/>
<path fill="#E9F0F4" d="M53.5,48.5C53.5,48.5,53.6,48.5,53.5,48.5C53.5,48.5,53.5,48.5,53.5,48.5z"/>
<path fill="#E9F0F4" d="M30.5,54.9C30.5,55,30.5,54.9,30.5,54.9C30.5,54.9,30.4,54.9,30.5,54.9z"/>
<path fill="#E9F0F4" d="M30.7,39.8c0,0.1,0.1,0.2,0.2,0.3C31,39.9,30.8,39.8,30.7,39.8z"/>
<path fill="#E9F0F4" d="M30.3,55.5c0.1,0,0.2,0,0.2-0.1C30.4,55.5,30.2,55.4,30.3,55.5z"/>
<path fill="#E9F0F4" d="M53.4,37.1C53.4,37.1,53.3,37.1,53.4,37.1C53.4,37.2,53.4,37.1,53.4,37.1z"/>
<path fill="#E9F0F4" d="M53.2,40.2c0.1,0,0.2,0,0.2-0.1C53.3,40,53.1,40,53.2,40.2z"/>
<path fill="#E9F0F4" d="M53.1,54.4C53.1,54.5,53.2,54.4,53.1,54.4C53.1,54.4,53.1,54.4,53.1,54.4z"/>
<path fill="#E9F0F4" d="M53.6,46.5c0-0.1,0-0.1,0-0.2c-0.1,0-0.2,0-0.2,0C53.3,46.5,53.4,46.5,53.6,46.5z"/>
<path fill="#E9F0F4" d="M53.6,38.8c0,0,0.1,0,0.1,0c0,0,0-0.1,0-0.1c0,0-0.1,0-0.1,0C53.6,38.7,53.6,38.7,53.6,38.8z"/>
<path fill="#E9F0F4" d="M52.9,41.6c-0.1,0-0.1-0.1-0.2-0.1c-0.1,0.1-0.1,0.2,0,0.3C52.9,41.9,52.9,41.8,52.9,41.6z"/>
<path fill="#E9F0F4" d="M52.9,43.9c0,0,0.1,0,0.1,0c0,0,0-0.1,0-0.1c0,0-0.1,0-0.1,0C52.9,43.8,52.9,43.8,52.9,43.9z"/>
<path fill="#E9F0F4" d="M75.5,44.8C75.5,44.8,75.6,44.8,75.5,44.8C75.6,44.8,75.5,44.7,75.5,44.8z"/>
<path fill="#E9F0F4" d="M76.6,48.1c0,0,0.1,0,0.1,0C76.7,48.1,76.6,48.1,76.6,48.1z"/>
<path fill="#E9F0F4" d="M78.2,44.1c0,0-0.1,0-0.1,0c0,0,0,0.1,0,0c0,0,0,0.1,0,0.1c0,0,0.1,0,0,0c0,0,0.1,0,0.1,0c0,0,0-0.1,0.1,0
	C78.2,44.2,78.2,44.2,78.2,44.1C78.2,44.1,78.2,44.1,78.2,44.1z"/>
<path fill="#E9F0F4" d="M54.7,53.3c0.1,0,0.1,0.1,0.2,0C54.9,53.2,54.7,53.1,54.7,53.3z"/>
<path fill="#E9F0F4" d="M76.9,45.2c0,0,0.1,0,0.1-0.1C77,45.2,76.9,45.2,76.9,45.2z"/>
<path fill="#E9F0F4" d="M76.8,46.1C76.8,46.1,76.9,46.1,76.8,46.1C77,46.1,76.9,45.9,76.8,46.1z"/>
<path fill="#E9F0F4" d="M54.2,38.9c0,0.1,0.1,0.1,0.1,0C54.2,38.9,54.2,38.9,54.2,38.9z"/>
<path fill="#E9F0F4" d="M54.2,57.9C54.2,58.1,54.5,57.6,54.2,57.9C54.2,57.9,54.2,57.8,54.2,57.9z"/>
<path fill="#E9F0F4" d="M54.6,56c0.2,0.2,0.4-0.1,0.2-0.2C54.7,55.9,54.6,55.9,54.6,56z"/>
<path fill="#E9F0F4" d="M53.8,38.2c0,0,0.1,0,0.1,0c0,0,0-0.1,0-0.1c0,0-0.1,0-0.1,0C53.8,38.1,53.8,38.1,53.8,38.2z"/>
<path fill="#E9F0F4" d="M51.7,50.5C51.6,50.5,51.6,50.5,51.7,50.5C51.6,50.6,51.7,50.5,51.7,50.5z"/>
<path fill="#E9F0F4" d="M50.8,59C50.8,59,50.9,59,50.8,59C50.8,58.9,50.8,59,50.8,59z"/>
<path fill="#E9F0F4" d="M51,54.8C51,54.9,51.1,54.8,51,54.8C51,54.8,51,54.8,51,54.8z"/>
<path fill="#E9F0F4" d="M51,46.9c0-0.1-0.1-0.1-0.1,0C50.9,47,50.9,47,51,46.9z"/>
<path fill="#E9F0F4" d="M50.8,53.5c0.1,0,0.2,0,0.2-0.1c0,0-0.1,0-0.1,0C50.9,53.5,50.8,53.5,50.8,53.5z"/>
<path fill="#E9F0F4" d="M50.9,51.1C50.9,51.1,51,51.1,50.9,51.1c0.1,0,0.1,0,0.2,0C51.1,51.1,50.9,51,50.9,51.1z"/>
<path fill="#E9F0F4" d="M51,47c0,0.1,0.1,0,0.1,0C51.1,47,51,47,51,47z"/>
<path fill="#E9F0F4" d="M73.5,46.1C73.5,46.1,73.6,46.1,73.5,46.1C73.5,46,73.5,46.1,73.5,46.1z"/>
<path fill="#E9F0F4" d="M73.5,46.6c0.2,0.1,0.3,0,0.3-0.3c-0.1,0-0.2,0-0.3,0C73.6,46.5,73.5,46.5,73.5,46.6z"/>
<path fill="#E9F0F4" d="M50.4,39.1c0,0,0.1,0,0.1,0c0,0,0-0.1,0-0.1c0,0-0.1,0-0.1,0C50.4,39,50.4,39,50.4,39.1z"/>
<path fill="#E9F0F4" d="M51.1,46.4C51.1,46.5,51.1,46.5,51.1,46.4C51.2,46.4,51.1,46.4,51.1,46.4z"/>
<path fill="#E9F0F4" d="M50.6,53.9C50.6,53.9,50.6,53.9,50.6,53.9C50.6,53.8,50.5,53.9,50.6,53.9z"/>
<path fill="#E9F0F4" d="M50.3,45.5C50.3,45.5,50.4,45.5,50.3,45.5C50.3,45.4,50.3,45.5,50.3,45.5z"/>
<path fill="#E9F0F4" d="M51.5,46.9c0,0.1-0.2,0.1-0.2,0.3c0.1,0,0.2,0,0.4,0C51.7,47,51.6,46.9,51.5,46.9z"/>
<path fill="#E9F0F4" d="M74.4,50.5C74.4,50.5,74.4,50.5,74.4,50.5C74.4,50.5,74.4,50.4,74.4,50.5z"/>
<path fill="#E9F0F4" d="M51.5,48.6C51.5,48.6,51.5,48.5,51.5,48.6c0-0.1,0-0.2,0-0.2C51.4,48.5,51.4,48.6,51.5,48.6z"/>
<path fill="#E9F0F4" d="M51.8,53.3c0-0.1-0.1-0.1-0.1-0.1c-0.1,0.1-0.3,0.3-0.4,0.5c0.2,0.1,0.2-0.1,0.3-0.2
	C51.7,53.5,51.8,53.4,51.8,53.3z"/>
<path fill="#E9F0F4" d="M51.8,53.9c0.2,0,0.3,0,0.4-0.2C52,53.7,51.7,53.7,51.8,53.9z"/>
<path fill="#E9F0F4" d="M74.5,46.1C74.6,46.2,74.7,45.8,74.5,46.1C74.6,46,74.5,46.1,74.5,46.1z"/>
<path fill="#E9F0F4" d="M51.7,44c-0.1,0-0.2,0.1-0.2,0.2C51.7,44.2,51.7,44.2,51.7,44z"/>
<path fill="#E9F0F4" d="M51.9,42.2C51.8,42.2,51.8,42.2,51.9,42.2C51.8,42.2,51.9,42.2,51.9,42.2z"/>
<path fill="#E9F0F4" d="M51.8,53.6c0,0,0.1,0,0.1,0C51.8,53.6,51.8,53.5,51.8,53.6z"/>
<path fill="#E9F0F4" d="M51.7,46.7c0,0,0.1,0,0.1,0c0-0.1,0.1-0.1,0.1-0.2c-0.1,0-0.1,0-0.2,0C51.7,46.6,51.7,46.6,51.7,46.7z"/>
<path fill="#E9F0F4" d="M51.1,44C51,44.2,51.3,43.9,51.1,44L51.1,44z"/>
<path fill="#E9F0F4" d="M78.3,45.6c0,0,0.1,0,0.1,0C78.4,45.5,78.3,45.5,78.3,45.6z"/>
<path fill="#E9F0F4" d="M60.1,43.2c-0.2,0-0.3-0.2-0.4,0.1C59.9,43.2,60,43.5,60.1,43.2z"/>
<path fill="#E9F0F4" d="M59.3,51.7c-0.1,0-0.1,0-0.2,0C59,51.9,59.3,51.9,59.3,51.7z"/>
<path fill="#E9F0F4" d="M59.1,47.3C59.1,47.3,59.1,47.2,59.1,47.3C59.1,47.3,59.1,47.3,59.1,47.3z"/>
<path fill="#E9F0F4" d="M59.2,43.4C59.2,43.4,59.1,43.4,59.2,43.4C59.1,43.4,59.2,43.4,59.2,43.4z"/>
<path fill="#E9F0F4" d="M59.1,50.9c0,0,0.1,0,0.1,0c0,0,0-0.1,0-0.1c0,0-0.1,0-0.1,0C59.1,50.9,59.1,50.9,59.1,50.9z"/>
<path fill="#E9F0F4" d="M59.7,43.1c0.2,0,0.2-0.2,0.3-0.3c-0.3,0-0.1,0-0.2-0.2c-0.1,0-0.1,0-0.2,0C59.5,42.9,59.7,42.9,59.7,43.1z"
	/>
<path fill="#E9F0F4" d="M59.5,56.3c0,0,0,0.1,0,0.1c0,0,0.1,0,0.2,0C59.6,56.3,59.6,56.3,59.5,56.3z"/>
<path fill="#E9F0F4" d="M55.6,50.4C55.4,50.6,55.7,50.3,55.6,50.4L55.6,50.4z"/>
<path fill="#E9F0F4" d="M58.5,37.7c0,0.1,0.1,0,0.1,0C58.6,37.7,58.5,37.7,58.5,37.7z"/>
<path fill="#E9F0F4" d="M58.4,49.1c0.1,0,0.1,0,0.2-0.1C58.4,49,58.3,49,58.4,49.1z"/>
<path fill="#E9F0F4" d="M59.6,54C59.6,54,59.5,54,59.6,54C59.5,54.1,59.6,54,59.6,54z"/>
<path fill="#E9F0F4" d="M58.8,51.1c0,0,0.1,0,0.1-0.1C58.8,51.1,58.8,51.1,58.8,51.1z"/>
<path fill="#E9F0F4" d="M58.4,49.5C58.4,49.5,58.5,49.5,58.4,49.5C58.5,49.4,58.4,49.5,58.4,49.5z"/>
<path fill="#E9F0F4" d="M60.2,59.8c0,0.1,0,0.1,0,0.2C60.4,60,60.4,59.7,60.2,59.8z"/>
<path fill="#E9F0F4" d="M60.6,43.6c-0.1,0-0.3,0.1-0.2,0.2C60.4,43.7,60.7,43.8,60.6,43.6z"/>
<path fill="#E9F0F4" d="M59.6,44.1c0,0,0.1,0,0.1,0c0,0,0-0.1,0-0.1c0,0-0.1,0-0.1,0C59.6,44,59.6,44,59.6,44.1z"/>
<path fill="#E9F0F4" d="M60.8,45.3c-0.1,0-0.4-0.1-0.5,0.2c0,0,0.1,0,0.1,0C60.7,45.4,60.8,45.6,60.8,45.3z"/>
<path fill="#E9F0F4" d="M60.2,53.2c0,0.1,0,0.2,0,0.3c0.1,0,0.1,0,0.2,0C60.4,53.3,60.4,53.2,60.2,53.2z"/>
<path fill="#E9F0F4" d="M60.1,44.1c-0.1-0.2,0.3-0.3,0-0.3c0,0.2-0.3,0-0.2,0.3C60,44.1,60.1,44.1,60.1,44.1z"/>
<path fill="#E9F0F4" d="M60.3,43.2c0-0.1,0-0.1,0-0.2c-0.1,0-0.2,0-0.2,0C60.1,43.2,60.2,43.2,60.3,43.2z"/>
<path fill="#E9F0F4" d="M50.3,37.4C50.3,37.4,50.3,37.3,50.3,37.4C50.3,37.3,50.2,37.3,50.3,37.4z"/>
<path fill="#E9F0F4" d="M60.1,60c0,0,0.1,0,0.1,0c0,0,0-0.1,0-0.1c0,0-0.1,0-0.1,0C60.1,59.9,60.1,60,60.1,60z"/>
<path fill="#E9F0F4" d="M60.3,49.5c0,0-0.1,0-0.1,0.1C60.3,49.5,60.3,49.5,60.3,49.5z"/>
<path fill="#E9F0F4" d="M82.8,49.9c0,0.1,0.1,0,0.1,0C82.9,49.8,82.8,49.8,82.8,49.9z"/>
<path fill="#E9F0F4" d="M56.6,56.9C56.6,56.9,56.7,57,56.6,56.9C56.7,56.9,56.6,56.8,56.6,56.9z"/>
<path fill="#E9F0F4" d="M56.5,40.9C56.5,40.9,56.5,40.9,56.5,40.9C56.5,40.9,56.4,40.9,56.5,40.9z"/>
<path fill="#E9F0F4" d="M56.9,52.9C56.9,52.9,57,52.9,56.9,52.9C57,52.9,56.9,52.8,56.9,52.9z"/>
<path fill="#E9F0F4" d="M55.7,56.5C55.7,56.6,55.8,56.5,55.7,56.5C55.8,56.5,55.7,56.5,55.7,56.5z"/>
<path fill="#E9F0F4" d="M56.1,54.7C56.1,54.8,56.1,54.7,56.1,54.7C56.1,54.7,56,54.7,56.1,54.7z"/>
<path fill="#E9F0F4" d="M57.2,49.9c0,0.1-0.3,0-0.2,0.2C57.1,50.1,57.4,50,57.2,49.9z"/>
<path fill="#E9F0F4" d="M58.1,59.6c0,0.2,0.1,0.2,0.2,0.3c0-0.1,0.1-0.1,0.1-0.3C58.2,59.6,58.1,59.6,58.1,59.6z"/>
<path fill="#E9F0F4" d="M80.9,44.3c0,0,0.1,0,0.1,0C81,44.2,80.9,44.2,80.9,44.3z"/>
<path fill="#E9F0F4" d="M80.5,44.9c0,0,0.1,0,0.1,0c0-0.1,0.1-0.1,0.1-0.2c-0.1,0-0.1,0-0.2,0C80.5,44.8,80.5,44.8,80.5,44.9z"/>
<path fill="#E9F0F4" d="M81.2,49.8C81.2,49.9,81.3,49.8,81.2,49.8C81.2,49.8,81.2,49.8,81.2,49.8z"/>
<path fill="#E9F0F4" d="M81.1,49.7c0.1,0,0.2,0,0.3-0.1c0-0.1,0-0.1,0-0.2C81.2,49.4,81.1,49.5,81.1,49.7z"/>
<path fill="#E9F0F4" d="M80.2,44.7C80.2,44.8,80.3,44.8,80.2,44.7C80.3,44.7,80.3,44.7,80.2,44.7z"/>
<path fill="#E9F0F4" d="M81.4,48.9c-0.1,0-0.1-0.1-0.2,0C81.2,49,81.4,49,81.4,48.9z"/>
<path fill="#E9F0F4" d="M57,52.3C57,52.3,57,52.3,57,52.3C57,52.6,57.3,52.1,57,52.3z"/>
<path fill="#E9F0F4" d="M57.2,56.8c0,0,0.1,0,0.1,0c0,0,0-0.1,0-0.1c0,0-0.1,0-0.1,0C57.2,56.7,57.2,56.8,57.2,56.8z"/>
<path fill="#E9F0F4" d="M79.9,47.5c0.3,0.1,0.3-0.1,0.4-0.3c-0.1,0-0.2,0-0.3-0.1C79.9,47.3,79.8,47.3,79.9,47.5z"/>
<path fill="#E9F0F4" d="M57.4,39.5c0,0-0.1,0-0.1,0c0,0,0,0.1,0,0.1c0,0,0.1,0,0.1,0C57.4,39.6,57.4,39.6,57.4,39.5z"/>
<path fill="#E9F0F4" d="M57.4,45.6C57.6,45.8,57.6,45.4,57.4,45.6L57.4,45.6z"/>
<path fill="#E9F0F4" d="M49.9,59.4c0,0.1,0,0.1,0,0.2C50,59.6,50,59.3,49.9,59.4z"/>
<path fill="#E9F0F4" d="M43.4,37.2C43.4,37.2,43.4,37.2,43.4,37.2C43.4,37.2,43.5,37.2,43.4,37.2z"/>
<path fill="#E9F0F4" d="M43.5,50.3c-0.1,0-0.2,0-0.2,0.1C43.4,50.5,43.6,50.4,43.5,50.3z"/>
<path fill="#E9F0F4" d="M43.4,47.8C43.4,47.8,43.4,47.7,43.4,47.8C43.4,47.8,43.4,47.8,43.4,47.8z"/>
<path fill="#E9F0F4" d="M66.3,46.3c0.2,0,0.2-0.1,0.3-0.2c-0.1,0-0.1-0.1-0.2-0.1C66.3,46.1,66.3,46.2,66.3,46.3z"/>
<path fill="#E9F0F4" d="M43.6,45.8C43.6,45.8,43.7,45.8,43.6,45.8C43.6,45.7,43.6,45.8,43.6,45.8z"/>
<path fill="#E9F0F4" d="M43.1,41.6c-0.1,0.1-0.1,0.2,0,0.2C43.2,41.7,43.2,41.6,43.1,41.6z"/>
<path fill="#E9F0F4" d="M43.1,52.7c0-0.1,0.1-0.1,0.1-0.2C43.1,52.4,43,52.7,43.1,52.7z"/>
<path fill="#E9F0F4" d="M45,39.2c-0.1,0-0.1,0-0.2,0c0,0.1-0.1,0.2-0.1,0.3C44.9,39.4,45,39.4,45,39.2z"/>
<path fill="#E9F0F4" d="M42.2,54.5c0,0,0.1,0,0.1,0c0,0,0-0.1,0-0.1C42.3,54.4,42.3,54.4,42.2,54.5C42.2,54.4,42.2,54.5,42.2,54.5z"
	/>
<path fill="#E9F0F4" d="M42.6,39.8C42.6,39.8,42.7,39.8,42.6,39.8C42.6,39.7,42.6,39.8,42.6,39.8z"/>
<path fill="#E9F0F4" d="M42.9,58.2c0.1,0.1,0.2-0.2,0.1-0.2C43,58.1,42.9,58.1,42.9,58.2z"/>
<path fill="#E9F0F4" d="M42.3,45.3c0,0,0.1,0,0.1,0c0,0,0-0.1,0-0.1c0,0-0.1,0-0.1,0C42.3,45.3,42.3,45.3,42.3,45.3z"/>
<path fill="#E9F0F4" d="M44.9,42.1c0.1,0,0.2,0,0.2-0.1c0,0-0.1,0-0.1,0C44.9,42.1,44.9,42.1,44.9,42.1z"/>
<path fill="#E9F0F4" d="M44.1,54.7c-0.1,0-0.1-0.1-0.3-0.1c0,0.1,0,0.1-0.1,0.2c0.2,0,0.1,0.1,0.1,0.3c0.1,0,0.1,0,0.2,0
	c0.1-0.1-0.1-0.2-0.1-0.3C44,54.8,44.1,54.8,44.1,54.7z"/>
<path fill="#E9F0F4" d="M44.7,48.4c0,0.2,0.3,0.1,0.4,0C44.9,48.3,44.9,48.5,44.7,48.4z"/>
<path fill="#E9F0F4" d="M44.6,48.7C44.6,48.7,44.7,48.7,44.6,48.7C44.7,48.7,44.7,48.6,44.6,48.7z"/>
<path fill="#E9F0F4" d="M44.1,39.7C44,40,44.3,39.7,44.1,39.7L44.1,39.7z"/>
<path fill="#E9F0F4" d="M44,50C44,50,43.9,50,44,50c-0.1,0.1-0.2,0.1-0.2,0.2c0,0,0.1,0,0.1,0C43.9,50.1,44,50.1,44,50z"/>
<path fill="#E9F0F4" d="M44.3,50.9C44.4,51,44.4,50.9,44.3,50.9C44.4,50.9,44.3,50.9,44.3,50.9z"/>
<path fill="#E9F0F4" d="M67,48.8C67,48.8,67.1,48.8,67,48.8C67.1,48.7,67,48.8,67,48.8z"/>
<path fill="#E9F0F4" d="M40,51.5c0,0,0,0.1,0,0.1c0,0,0.1,0,0.2,0C40.2,51.5,40.1,51.5,40,51.5z"/>
<path fill="#E9F0F4" d="M40.4,48.8C40.4,48.8,40.5,48.8,40.4,48.8C40.4,48.7,40.4,48.8,40.4,48.8z"/>
<path fill="#E9F0F4" d="M40.2,47.2C40.2,47.2,40.3,47.2,40.2,47.2C40.2,47.1,40.2,47.2,40.2,47.2z"/>
<path fill="#E9F0F4" d="M63.2,44.5C63.2,44.5,63.2,44.5,63.2,44.5C63.2,44.5,63.1,44.5,63.2,44.5z"/>
<path fill="#E9F0F4" d="M40,50.8c0,0-0.1,0-0.1,0.1C40,50.9,40,50.9,40,50.8z"/>
<path fill="#E9F0F4" d="M40.3,44.9c0,0.1-0.2,0-0.2,0.2C40.3,45.1,40.5,44.9,40.3,44.9z"/>
<path fill="#E9F0F4" d="M62.9,48C62.9,48,62.9,48,62.9,48C62.9,48,62.8,48,62.9,48z"/>
<path fill="#E9F0F4" d="M40.1,46.5c0,0,0.1,0,0.1,0c0,0,0-0.1,0-0.1c0,0-0.1,0-0.1,0C40.1,46.5,40.1,46.5,40.1,46.5z"/>
<path fill="#E9F0F4" d="M62.4,45.9c0.1,0,0.2-0.1,0.2-0.2C62.4,45.7,62.3,45.8,62.4,45.9z"/>
<path fill="#E9F0F4" d="M39.4,50.7c0,0,0,0.1,0,0.1c0.1,0,0.1,0,0.2,0C39.6,50.7,39.5,50.7,39.4,50.7z"/>
<path fill="#E9F0F4" d="M40.1,42c-0.2,0-0.3,0-0.3,0.3C40.1,42.3,40.2,42.2,40.1,42z"/>
<path fill="#E9F0F4" d="M40.6,51c0,0,0.1,0,0.1,0c0,0,0-0.1,0-0.1C40.7,50.9,40.7,50.9,40.6,51C40.6,50.9,40.6,51,40.6,51z"/>
<path fill="#E9F0F4" d="M63.9,49C63.9,49,64,49,63.9,49C63.9,48.9,63.9,49,63.9,49z"/>
<path fill="#E9F0F4" d="M41.2,55.2C41.1,55,41.1,55.4,41.2,55.2L41.2,55.2z"/>
<path fill="#E9F0F4" d="M41,50.7c0,0,0,0.1,0.1,0.1C41.1,50.8,41.1,50.5,41,50.7z"/>
<path fill="#E9F0F4" d="M41.5,44.2C41.4,44.4,41.7,44.1,41.5,44.2L41.5,44.2z"/>
<path fill="#E9F0F4" d="M41.3,44c0,0,0.1,0,0.1,0c0,0,0-0.1,0-0.1c0,0-0.1,0-0.1,0C41.3,44,41.3,44,41.3,44z"/>
<path fill="#E9F0F4" d="M40.9,59.8c0,0,0.1,0,0.1-0.1C41,59.8,40.9,59.8,40.9,59.8z"/>
<path fill="#E9F0F4" d="M63.4,43.8c0.1,0,0.1,0,0.2-0.1C63.5,43.7,63.4,43.7,63.4,43.8z"/>
<path fill="#E9F0F4" d="M41,45c0,0-0.1,0-0.1,0C41,45,41,45,41,45z"/>
<path fill="#E9F0F4" d="M41.6,41.5c0,0,0.1,0,0.1-0.1C41.7,41.4,41.6,41.4,41.6,41.5z"/>
<path fill="#E9F0F4" d="M63.4,48.9C63.4,49,63.5,48.9,63.4,48.9C63.4,48.9,63.4,48.9,63.4,48.9z"/>
<path fill="#E9F0F4" d="M40.8,52.6c0,0,0.1,0,0.1-0.1C40.8,52.6,40.8,52.6,40.8,52.6z"/>
<path fill="#E9F0F4" d="M43.7,53.1C43.8,53.2,43.8,53.1,43.7,53.1C43.8,53.1,43.7,53.1,43.7,53.1z"/>
<path fill="#E9F0F4" d="M48.3,53.2C48.3,53.2,48.2,53.2,48.3,53.2C48.2,53.2,48.3,53.2,48.3,53.2z"/>
<path fill="#E9F0F4" d="M71.3,50c-0.4-0.1-0.3,0.2-0.4,0.5c0.2,0,0.2-0.2,0.5-0.2C71.3,50.2,71.2,50.2,71.3,50z"/>
<path fill="#E9F0F4" d="M48.1,43.8c0,0.1-0.1,0.1,0,0.2C48.1,43.9,48.2,43.8,48.1,43.8z"/>
<path fill="#E9F0F4" d="M47.8,54.9c0,0,0.1,0,0.1,0C47.9,54.9,47.8,54.8,47.8,54.9z"/>
<path fill="#E9F0F4" d="M47.8,44c0-0.1,0.1-0.1,0.1-0.2C47.8,43.7,47.7,43.9,47.8,44z"/>
<path fill="#E9F0F4" d="M47.5,57.4c-0.1,0.1-0.1,0.2-0.2,0.3c0.1,0,0.2-0.1,0.3-0.1C47.6,57.5,47.5,57.4,47.5,57.4z"/>
<path fill="#E9F0F4" d="M47.3,45C47.2,45.2,47.5,44.9,47.3,45L47.3,45z"/>
<path fill="#E9F0F4" d="M44.8,40.1C44.8,40.1,44.7,40.2,44.8,40.1C44.8,40.2,44.8,40.2,44.8,40.1z"/>
<path fill="#E9F0F4" d="M47.6,56.3C47.6,56.4,47.7,56.3,47.6,56.3C47.6,56.3,47.6,56.3,47.6,56.3z"/>
<path fill="#E9F0F4" d="M49.3,55.3C49.3,55.4,49.3,55.3,49.3,55.3C49.3,55.3,49.2,55.3,49.3,55.3z"/>
<path fill="#E9F0F4" d="M49.5,51.6C49.5,51.6,49.6,51.6,49.5,51.6C49.5,51.5,49.5,51.6,49.5,51.6z"/>
<path fill="#E9F0F4" d="M47,43.4C47,43.4,46.9,43.5,47,43.4C47,43.5,47,43.5,47,43.4z"/>
<path fill="#E9F0F4" d="M49.1,57.4C49.1,57.4,49.2,57.4,49.1,57.4C49.1,57.3,49.1,57.4,49.1,57.4z"/>
<path fill="#E9F0F4" d="M49.9,42.2C49.9,42.2,49.8,42.2,49.9,42.2C49.9,42.2,49.9,42.2,49.9,42.2z"/>
<path fill="#E9F0F4" d="M48.7,52.3c0,0,0.1,0,0.1,0c0-0.1,0.1-0.1,0.1-0.2c0,0-0.1,0-0.1,0C48.8,52.2,48.7,52.2,48.7,52.3z"/>
<path fill="#E9F0F4" d="M71.4,49.3c0.1,0,0.2-0.1,0.2-0.3C71.5,49.1,71.4,49.2,71.4,49.3z"/>
<path fill="#E9F0F4" d="M48.7,59C48.7,59,48.7,58.9,48.7,59C48.7,59,48.7,59.1,48.7,59z"/>
<path fill="#E9F0F4" d="M49.1,59.3C49.1,59.4,49.2,59.3,49.1,59.3C49.1,59.3,49.1,59.3,49.1,59.3z"/>
<path fill="#E9F0F4" d="M47.7,52.2C47.7,52.3,47.8,52.2,47.7,52.2C47.7,52.2,47.7,52.2,47.7,52.2z"/>
<path fill="#E9F0F4" d="M45.4,51.7C45.4,51.7,45.4,51.7,45.4,51.7C45.4,51.8,45.5,51.7,45.4,51.7z"/>
<path fill="#E9F0F4" d="M68.2,48.5c0.1,0,0.1,0,0.2-0.1C68.3,48.4,68.2,48.4,68.2,48.5z"/>
<path fill="#E9F0F4" d="M45.4,51.3C45.4,51.3,45.3,51.3,45.4,51.3C45.4,51.4,45.4,51.3,45.4,51.3z"/>
<path fill="#E9F0F4" d="M68.4,44.5c-0.1,0-0.1-0.1-0.2,0C68.1,44.6,68.4,44.6,68.4,44.5z"/>
<path fill="#E9F0F4" d="M45.6,41.8C45.6,41.8,45.5,41.8,45.6,41.8C45.6,41.8,45.6,41.8,45.6,41.8z"/>
<path fill="#E9F0F4" d="M45.4,48.5c0,0,0.1,0,0.1-0.1C45.5,48.4,45.4,48.4,45.4,48.5z"/>
<path fill="#E9F0F4" d="M45.5,49c0,0-0.1,0-0.1,0c0,0.1-0.1,0.1-0.1,0.2c0,0,0.1,0,0.1,0C45.5,49.1,45.5,49.1,45.5,49z"/>
<path fill="#E9F0F4" d="M45.1,37.2C45.1,37.2,45.2,37.1,45.1,37.2C45.1,37.1,45.1,37.1,45.1,37.2z"/>
<path fill="#E9F0F4" d="M45,52C44.9,52.2,45.2,51.9,45,52L45,52z"/>
<path fill="#E9F0F4" d="M44.9,50.8C44.9,50.9,45,50.8,44.9,50.8C44.9,50.8,44.9,50.8,44.9,50.8z"/>
<path fill="#E9F0F4" d="M45.5,53.1c0,0.1-0.1,0.1-0.1,0.2C45.5,53.3,45.6,53.1,45.5,53.1z"/>
<path fill="#E9F0F4" d="M45.4,41.1c-0.1,0.2-0.1-0.2-0.2-0.2c0,0,0,0.1-0.1,0.1c0,0.1,0.1,0.1,0.1,0.3
	C45.3,41.3,45.5,41.1,45.4,41.1z"/>
<path fill="#E9F0F4" d="M46.4,39.7c0.1,0,0.1,0.1,0.2,0.1c0-0.1,0-0.1,0-0.2C46.5,39.6,46.4,39.6,46.4,39.7z"/>
<path fill="#E9F0F4" d="M46.9,54C46.8,54.2,47.1,53.9,46.9,54L46.9,54z"/>
<path fill="#E9F0F4" d="M47,44.3c-0.1,0-0.1,0-0.2,0C46.7,44.6,47,44.5,47,44.3z"/>
<path fill="#E9F0F4" d="M46.9,44c0,0,0,0.1,0,0.1C47.1,44.3,47.1,43.8,46.9,44z"/>
<path fill="#E9F0F4" d="M45.6,53c0,0,0,0.1,0,0.1c0.1,0,0.1,0,0.2,0C45.8,53,45.7,53,45.6,53z"/>
<path fill="#E9F0F4" d="M46,43.9C45.9,44,46.2,43.8,46,43.9L46,43.9z"/>
<path fill="#E9F0F4" d="M68.2,47.4c0.2,0,0.3-0.1,0.3-0.3C68.3,47.1,68.2,47.2,68.2,47.4z"/>
<path fill="#E9F0F4" d="M46.1,52.8c0.1,0,0.2,0,0.2-0.1c0,0-0.1,0-0.1,0C46.1,52.8,46.1,52.8,46.1,52.8z"/>
<path fill="#E9F0F4" d="M46.1,44.7c0,0,0.1,0,0.1-0.1C46.2,44.6,46.2,44.6,46.1,44.7z"/>
<path fill="#E9F0F4" d="M46.4,40.5C46.4,40.5,46.5,40.5,46.4,40.5C46.4,40.5,46.4,40.5,46.4,40.5z"/>
<path fill="#E9F0F4" d="M18,44.3c-0.2,0-0.2,0.1-0.3,0.2C17.9,44.5,18,44.4,18,44.3z"/>
<path fill="#E9F0F4" d="M18.4,40.9c-0.2-0.1-0.5,0-0.5,0.3C18.2,41.2,18.4,41.1,18.4,40.9z"/>
<path fill="#E9F0F4" d="M15.6,41.6c0,0,0.1,0,0.1,0c0,0,0-0.1,0-0.1C15.7,41.5,15.6,41.5,15.6,41.6C15.6,41.6,15.6,41.6,15.6,41.6z"
	/>
<path fill="#E9F0F4" d="M14.5,39.2C14.5,39.2,14.4,39.2,14.5,39.2C14.5,39.3,14.5,39.3,14.5,39.2z"/>
<path fill="#E9F0F4" d="M15.3,37.8C15.3,37.8,15.2,37.8,15.3,37.8C15.3,37.9,15.3,37.9,15.3,37.8z"/>
<path fill="#E9F0F4" d="M15.7,41.1c-0.2,0-0.3,0.1-0.3,0.3C15.5,41.5,15.8,41.3,15.7,41.1z"/>
<path fill="#E9F0F4" d="M16.4,44.9C16.4,44.9,16.3,44.8,16.4,44.9C16.3,44.9,16.4,44.9,16.4,44.9z"/>
<path fill="#E9F0F4" d="M14.3,39.4C14.6,39.5,14.4,39.2,14.3,39.4L14.3,39.4z"/>
<path fill="#E9F0F4" d="M22.2,44.2c-0.2,0-0.2,0.1-0.3,0.2C22.1,44.4,22.2,44.3,22.2,44.2z"/>
<path fill="#E9F0F4" d="M22,38.2C22,38.2,22,38.3,22,38.2c0,0.1,0,0.2-0.1,0.1C22,38.4,22.2,38.2,22,38.2z"/>
<path fill="#E9F0F4" d="M22.4,39.3c0,0-0.1,0-0.1,0C22.3,39.3,22.4,39.3,22.4,39.3z"/>
<path fill="#E9F0F4" d="M22.4,40.8c-0.2,0-0.2,0.1-0.3,0.2C22.2,41,22.3,40.9,22.4,40.8z"/>
<path fill="#E9F0F4" d="M21.2,52.5c-0.1,0.1,0,0.2,0.1,0.2C21.4,52.6,21.3,52.5,21.2,52.5z"/>
<path fill="#E9F0F4" d="M21.5,43.4c-0.1,0-0.1-0.1-0.1,0C21.4,43.4,21.4,43.4,21.5,43.4z"/>
<path fill="#E9F0F4" d="M21.6,43C21.6,43,21.5,43.1,21.6,43C21.6,43.1,21.6,43.1,21.6,43z"/>
<path fill="#E9F0F4" d="M19.7,37.2C19.7,37.2,19.7,37.2,19.7,37.2C19.7,37.2,19.8,37.2,19.7,37.2z"/>
<path fill="#E9F0F4" d="M21.1,44.3c0.1,0,0.3-0.1,0.2-0.2C21.3,44.2,21.2,44.2,21.1,44.3z"/>
<path fill="#E9F0F4" d="M21.1,39.7C21,39.8,21.3,39.6,21.1,39.7L21.1,39.7z"/>
<path fill="#E9F0F4" d="M21.3,40.1c0-0.1,0-0.1,0-0.2c-0.1,0-0.3,0.1-0.2,0.2C21.1,40.1,21.2,40.1,21.3,40.1z"/>
<path fill="#E9F0F4" d="M21,40.7C20.9,40.8,21.2,40.6,21,40.7L21,40.7z"/>
<path fill="#E9F0F4" d="M21,43.2C21,43.2,20.9,43.3,21,43.2C21,43.3,21,43.3,21,43.2z"/>
<path fill="#E9F0F4" d="M20.6,37.3C20.5,37.4,20.8,37.2,20.6,37.3L20.6,37.3z"/>
<path fill="#E9F0F4" d="M20.7,37.5c-0.1,0-0.1,0-0.2-0.1c0,0.1-0.1,0.1,0,0.2C20.6,37.7,20.7,37.6,20.7,37.5z"/>
<path fill="#E9F0F4" d="M15.2,42C15.3,42,15.3,42,15.2,42C15.3,41.9,15.2,42,15.2,42z"/>
<path fill="#E9F0F4" d="M15.6,57.7c0.2,0-0.1,0.2,0.1,0.3c0-0.1,0.2-0.1,0.2-0.3C15.7,57.7,15.7,57.5,15.6,57.7z"/>
<path fill="#E9F0F4" d="M15.3,49.8c0.1,0.1,0.2,0.1,0.4,0C15.7,49.4,15.3,49.6,15.3,49.8z"/>
<path fill="#E9F0F4" d="M38.8,43.7c0,0.1,0,0.1,0.1,0.2c0,0,0-0.1,0.1,0C38.9,43.8,38.8,43.7,38.8,43.7z"/>
<path fill="#E9F0F4" d="M15.9,44.1c0,0,0.1,0,0.1,0c0,0,0-0.1,0-0.1c0,0-0.1,0-0.1,0C15.9,44.1,15.9,44.1,15.9,44.1z"/>
<path fill="#E9F0F4" d="M15.1,55.7C15.2,55.8,15.2,55.7,15.1,55.7C15.2,55.7,15.1,55.7,15.1,55.7z"/>
<path fill="#E9F0F4" d="M37.3,49.4c0-0.1,0.2,0,0.2-0.2C37.3,49.2,37.1,49.4,37.3,49.4z"/>
<path fill="#E9F0F4" d="M14.3,50.3c0.2,0,0.2-0.1,0.3-0.2C14.4,50,14.3,50.1,14.3,50.3z"/>
<path fill="#E9F0F4" d="M16.2,54C16.2,54,16.1,54.1,16.2,54C16.2,54.1,16.2,54.1,16.2,54z"/>
<path fill="#E9F0F4" d="M14.7,59c0.3,0,0.5,0,0.5-0.3C14.9,58.7,14.8,58.9,14.7,59z"/>
<path fill="#E9F0F4" d="M15.9,43c0.2,0,0.3,0,0.3-0.2C16.1,42.8,15.9,42.9,15.9,43z"/>
<path fill="#E9F0F4" d="M17.1,42c0-0.1,0.1-0.1,0-0.2C17.1,41.9,17,42,17.1,42z"/>
<path fill="#E9F0F4" d="M16.3,58c0,0,0.1,0,0.1-0.1C16.4,58,16.3,58,16.3,58z"/>
<path fill="#E9F0F4" d="M39.8,47.5c0.1,0,0.2-0.2,0.1-0.3C39.8,47.3,39.6,47.4,39.8,47.5z"/>
<path fill="#E9F0F4" d="M17.3,46c0,0.1,0.1,0.1,0.1,0C17.3,46,17.3,45.9,17.3,46z"/>
<path fill="#E9F0F4" d="M17.4,56.6c0,0,0.1,0,0.1-0.1C17.5,56.6,17.4,56.5,17.4,56.6z"/>
<path fill="#E9F0F4" d="M16.2,57.7c0,0-0.1,0-0.1,0c0,0.2,0.1,0,0.2-0.1c0.1-0.1,0.3-0.1,0.3-0.3C16.5,57.3,16.2,57.5,16.2,57.7z"/>
<path fill="#E9F0F4" d="M60.7,45.6c-0.1,0-0.1-0.1-0.3-0.1c0,0.2,0.1,0.3,0.3,0.3C60.7,45.8,60.7,45.7,60.7,45.6z"/>
<path fill="#E9F0F4" d="M16.9,59C16.9,59,16.8,59.1,16.9,59C16.9,59.1,16.9,59.1,16.9,59z"/>
<path fill="#E9F0F4" d="M13.9,42.9c0,0,0.1,0,0.1,0c0-0.1,0.1-0.1,0.1-0.2c-0.1,0-0.1,0-0.2,0C13.9,42.8,13.9,42.9,13.9,42.9z"/>
<path fill="#E9F0F4" d="M13.9,58.8C13.9,58.8,13.8,58.8,13.9,58.8C13.8,58.9,13.9,58.8,13.9,58.8z"/>
<path fill="#E9F0F4" d="M14,42.3c0-0.1-0.1-0.1-0.1-0.1c-0.1,0.1-0.3,0-0.2,0.3C13.8,42.6,14,42.5,14,42.3z"/>
<path fill="#E9F0F4" d="M36.6,50.6c0.1,0,0.2-0.1,0.3-0.2C36.7,50.4,36.6,50.4,36.6,50.6z"/>
<path fill="#E9F0F4" d="M13.8,58.9C13.8,58.9,13.7,58.9,13.8,58.9C13.7,59,13.8,58.9,13.8,58.9z"/>
<path fill="#E9F0F4" d="M13.9,41.9c0-0.2-0.1-0.2-0.3-0.2C13.6,41.9,13.8,41.9,13.9,41.9z"/>
<path fill="#E9F0F4" d="M13.8,55.6C13.8,55.6,13.8,55.7,13.8,55.6c-0.1,0.1-0.1,0.1-0.1,0.2C13.9,55.8,13.9,55.6,13.8,55.6z"/>
<path fill="#E9F0F4" d="M13.4,58.3c0-0.2,0.2-0.1,0.2-0.3C13.5,58,13.3,58.2,13.4,58.3z"/>
<path fill="#E9F0F4" d="M13.6,42C13.6,42,13.7,42,13.6,42C13.6,41.9,13.6,42,13.6,42z"/>
<path fill="#E9F0F4" d="M18.1,44.1c0.2,0,0.4-0.1,0.4-0.3C18.4,43.7,18.1,43.8,18.1,44.1z"/>
<path fill="#E9F0F4" d="M44.3,46.2c0.2,0,0.3-0.1,0.3-0.3C44.3,45.9,44.3,46.1,44.3,46.2z"/>
<path fill="#E9F0F4" d="M21.1,55.2c0.2,0,0.3,0,0.3-0.2C21.3,55,21.2,55.1,21.1,55.2z"/>
<path fill="#E9F0F4" d="M21.6,57c0.2,0,0.2-0.1,0.2-0.2C21.6,56.8,21.6,56.9,21.6,57z"/>
<path fill="#E9F0F4" d="M22.1,44.4c-0.1,0-0.1,0-0.2,0c0,0.1-0.1,0.1-0.1,0.3C21.9,44.7,22.1,44.6,22.1,44.4z"/>
<path fill="#E9F0F4" d="M21,51.2c0-0.1,0.1-0.1,0.1-0.2C21,51,20.9,51.2,21,51.2z"/>
<path fill="#E9F0F4" d="M21.9,58.4C21.7,58.6,22,58.3,21.9,58.4L21.9,58.4z"/>
<path fill="#E9F0F4" d="M43.5,44.7C43.5,44.7,43.5,44.7,43.5,44.7C43.5,44.6,43.4,44.7,43.5,44.7z"/>
<path fill="#E9F0F4" d="M20.4,52.9c0.1,0,0.2,0,0.2-0.2C20.5,52.7,20.4,52.7,20.4,52.9z"/>
<path fill="#E9F0F4" d="M20.6,39.2c0.1-0.1,0-0.2,0.1-0.3C20.5,38.9,20.4,39.2,20.6,39.2z"/>
<path fill="#E9F0F4" d="M20.8,40.1C20.8,40.1,20.9,40.1,20.8,40.1C20.8,40,20.8,40.1,20.8,40.1z"/>
<path fill="#E9F0F4" d="M20.8,38.6c-0.1,0-0.1,0-0.2,0.1C20.7,38.7,20.8,38.7,20.8,38.6z"/>
<path fill="#E9F0F4" d="M43.7,47.9c0.2,0,0.2,0,0.2-0.2C43.8,47.8,43.7,47.8,43.7,47.9z"/>
<path fill="#E9F0F4" d="M22.1,53.8c0.1,0,0.1-0.1,0.2-0.2C22.1,53.6,22.1,53.7,22.1,53.8z"/>
<path fill="#E9F0F4" d="M22.6,40.6C22.6,40.6,22.7,40.6,22.6,40.6C22.6,40.5,22.6,40.6,22.6,40.6z"/>
<path fill="#E9F0F4" d="M21.9,59.8C21.9,59.9,21.9,59.8,21.9,59.8C21.9,59.8,21.8,59.8,21.9,59.8z"/>
<path fill="#E9F0F4" d="M22.7,45.5C22.7,45.5,22.7,45.5,22.7,45.5C22.7,45.5,22.6,45.5,22.7,45.5z"/>
<path fill="#E9F0F4" d="M22.4,44.7c-0.2-0.2-0.4,0.3-0.4,0.4c0-0.1,0.1,0,0.2-0.1C22.3,45,22.4,44.9,22.4,44.7z"/>
<path fill="#E9F0F4" d="M21.9,54.2c0.1,0,0.1,0,0.2-0.1C22,54.1,21.9,54.1,21.9,54.2z"/>
<path fill="#E9F0F4" d="M45.3,46.3c0,0.1-0.1,0.1-0.1,0.2c0.1,0,0.2,0.1,0.3,0C45.4,46.4,45.4,46.3,45.3,46.3z"/>
<path fill="#E9F0F4" d="M20.3,52.9C20.4,52.9,20.4,52.9,20.3,52.9C20.4,52.8,20.3,52.9,20.3,52.9z"/>
<path fill="#E9F0F4" d="M45.1,46.6c0,0,0.1,0,0.1,0C45.2,46.5,45.1,46.5,45.1,46.6z"/>
<path fill="#E9F0F4" d="M45.1,46.8C45.1,46.8,45.2,46.8,45.1,46.8C45.2,46.7,45.1,46.8,45.1,46.8z"/>
<path fill="#E9F0F4" d="M20.1,48c-0.1,0-0.3-0.1-0.2,0.1C20,48.1,20.1,48.1,20.1,48z"/>
<path fill="#E9F0F4" d="M18.9,39.5c0.2,0,0.4,0,0.3-0.3C19,39.3,18.9,39.3,18.9,39.5z"/>
<path fill="#E9F0F4" d="M19.1,46.5C19.1,46.5,19.2,46.5,19.1,46.5C19.2,46.5,19.2,46.4,19.1,46.5z"/>
<path fill="#E9F0F4" d="M20.3,49.3c0.2,0,0.3-0.1,0.4-0.3C20.4,49.1,20.3,49.2,20.3,49.3z"/>
<path fill="#E9F0F4" d="M40.5,44.6c0,0.1,0.1,0,0.1,0C40.6,44.5,40.5,44.5,40.5,44.6z"/>
<path fill="#E9F0F4" d="M40.6,44.5c0.1,0,0.2-0.1,0.3-0.2c-0.1,0-0.2,0-0.3,0C40.6,44.3,40.6,44.4,40.6,44.5z"/>
<path fill="#E9F0F4" d="M18,55.4c0.2,0,0.2-0.1,0.3-0.2C18.1,55.2,18.1,55.4,18,55.4z"/>
<path fill="#E9F0F4" d="M18.4,52.3C18.4,52.3,18.5,52.3,18.4,52.3C18.5,52.3,18.5,52.2,18.4,52.3z"/>
<path fill="#E9F0F4" d="M17.9,52.4C17.9,52.7,18.2,52.5,17.9,52.4L17.9,52.4z"/>
<path fill="#E9F0F4" d="M19.9,47.4c0-0.1,0-0.1,0-0.2c-0.2,0-0.3,0.1-0.4,0.3C19.8,47.4,19.8,47.4,19.9,47.4z"/>
<path fill="#E9F0F4" d="M42.5,44.5c0,0-0.1,0-0.2,0C42.2,44.7,42.6,44.6,42.5,44.5z"/>
<path fill="#E9F0F4" d="M19.5,50.9C19.6,50.9,19.6,50.9,19.5,50.9C19.6,50.8,19.5,50.9,19.5,50.9z"/>
<path fill="#E9F0F4" d="M19.4,50.8c0.1,0,0.2-0.1,0.2-0.2C19.5,50.6,19.4,50.6,19.4,50.8z"/>
<path fill="#E9F0F4" d="M42.8,50.3c0,0,0,0.1-0.1,0.1C42.8,50.5,42.9,50.2,42.8,50.3C42.8,50.2,42.8,50.3,42.8,50.3z"/>
<path fill="#E9F0F4" d="M42.8,44.3c0.2,0,0.4,0,0.4-0.3c-0.1,0-0.1-0.1-0.2-0.1C42.9,44.1,42.7,44.1,42.8,44.3z"/>
<path fill="#E9F0F4" d="M19.8,40.5c0,0.1-0.3,0-0.2,0.3C19.9,40.8,20.1,40.5,19.8,40.5z"/>
<path fill="#E9F0F4" d="M19.9,53.9C19.8,54.1,20.1,53.8,19.9,53.9L19.9,53.9z"/>
<path fill="#E9F0F4" d="M17.5,51.1C17.6,51.1,17.6,51.1,17.5,51.1C17.6,51,17.5,51.1,17.5,51.1z"/>
<path fill="#E9F0F4" d="M19.9,44.8c-0.1,0-0.1,0.1-0.3,0.1c0,0.1,0,0.1,0,0.2C19.8,45.1,20,45,19.9,44.8z"/>
<path fill="#E9F0F4" d="M20.5,38.2c0.1-0.2,0.4-0.2,0.4-0.6c-0.3,0-0.4,0.1-0.6,0.1c-0.1-0.1,0.2-0.2,0.1-0.3c0,0-0.2,0.2-0.2,0.1
	c0-0.1,0.2-0.1,0.3-0.2c0-0.1,0-0.2,0-0.3c-0.1,0-0.2,0.1-0.3,0.1c-0.1-0.2-0.2,0-0.4-0.1c0,0.1-0.1,0.1-0.2,0.2
	c-0.3,0.1-0.5,0.3-0.6,0.7c0.1,0,0.2,0.1,0.2,0.2c-0.1,0-0.2,0.2-0.1,0.2c0-0.1,0.1-0.1,0.2-0.1c0,0.1,0,0.1-0.1,0.2
	c0.1,0,0.2,0,0.2,0.1C20,38.8,20.1,38.3,20.5,38.2z"/>
<path fill="#E9F0F4" d="M19.5,44.7c0.2,0,0.4-0.2,0.2-0.3C19.7,44.5,19.5,44.5,19.5,44.7z"/>
<path fill="#E9F0F4" d="M42.2,48.2C42.2,48.2,42.2,48.2,42.2,48.2C42.2,48.1,42.1,48.2,42.2,48.2z"/>
<path fill="#E9F0F4" d="M15.6,41c0,0-0.1,0-0.1,0.1C15.5,41,15.6,41,15.6,41z"/>
<path fill="#E9F0F4" d="M15.1,39c0,0-0.1,0-0.1,0.1C15.1,39.1,15.1,39.1,15.1,39z"/>
<path fill="#E9F0F4" d="M15,38.6C14.7,38.5,14.8,39,15,38.6L15,38.6z"/>
</svg>
