<?xml version="1.0" encoding="utf-8"?>
<!-- Generator: Adobe Illustrator 18.1.1, SVG Export Plug-In . SVG Version: 6.00 Build 0)  -->
<svg version="1.1" id="Layer_1" xmlns="http://www.w3.org/2000/svg" xmlns:xlink="http://www.w3.org/1999/xlink" x="0px" y="0px"
	 viewBox="0 0 991.5 434.8" enable-background="new 0 0 991.5 434.8" xml:space="preserve">
<g>
	<path fill="#86A3A8" d="M316.7,180l-0.2,82.3l-23.9,0l0.2-82.3L316.7,180 M392.7,104.1l-175.9-0.2l-0.3,234.3l175.9,0.2
		L392.7,104.1L392.7,104.1z"/>
	<path fill="#86A3A8" d="M516.3,180.2l-0.2,82.3l-23.9,0l0.2-82.3L516.3,180.2 M592.3,104.3l-175.9-0.2l-0.3,234.3l175.9,0.2
		L592.3,104.3L592.3,104.3z"/>
	<polygon fill="#86A3A8" points="915.4,76.3 991.5,76.4 991.5,0.4 815.7,0.2 815.3,338.9 991.2,339 991.3,263 915.3,262.9 
		891.4,262.9 891.5,207.6 965.9,207.7 965.9,131.7 891.5,131.6 891.6,76.3 	"/>
	
		<rect x="366.4" y="-149.7" transform="matrix(-1.005335e-003 1 -1 -1.005335e-003 443.0328 -366.2006)" fill="#86A3A8" width="76" height="375.7"/>
	<polygon fill="#86A3A8" points="117.1,0.3 117,146 75.4,0.3 75.2,0.3 -0.8,0.3 -1.1,338.9 74.9,339 75,192.7 116.8,338.9 
		116.8,290.5 116.8,338.9 192.8,339 193.1,0.3 	"/>
	<polygon fill="#86A3A8" points="791.7,130.4 791.9,0.2 715.9,0.1 715.8,84.2 692,96.4 692.1,0.1 616.1,0 615.7,338.7 691.7,338.7 
		691.8,243.3 715.6,254.9 715.5,338.8 791.5,338.8 791.7,207.5 791.7,207.5 791.7,207.5 715.9,169.6 734,160.3 791.7,131.5 
		791.7,130.7 791.9,130.6 	"/>
</g>
<path fill="#86A3A8" d="M0.1,435.3v-63.1h12.3v52.4h32.2v10.8H0.1z"/>
<path fill="#86A3A8" d="M75.1,435.3v-63.1h12.3v63.1H75.1z"/>
<path fill="#86A3A8" d="M130.2,372.2l17.1,47.7l16.9-47.7H177l-24.6,63.1h-10.3l-24.8-63.1H130.2z"/>
<path fill="#86A3A8" d="M250.7,424.5v10.8h-43.8v-63.1h43v10.8h-30.8v15.2h26.6v10h-26.6v16.4H250.7z"/>
<path fill="#86A3A8" d="M334.6,435.3v-63.1h22.9c5.2,0,9.7,0.8,13.6,2.5c3.9,1.7,7.1,3.9,9.7,6.8s4.6,6.2,5.9,10
	c1.3,3.8,2,7.9,2,12.2c0,4.8-0.7,9.1-2.2,13c-1.5,3.9-3.5,7.2-6.3,10c-2.7,2.8-6,4.9-9.8,6.4c-3.8,1.5-8.1,2.3-12.8,2.3H334.6z
	 M376.3,403.6c0-3-0.4-5.8-1.2-8.4c-0.8-2.5-2-4.7-3.6-6.6c-1.6-1.8-3.6-3.3-5.9-4.3c-2.3-1-5-1.5-8-1.5h-10.7v41.6h10.7
	c3,0,5.7-0.5,8-1.6c2.3-1.1,4.3-2.5,5.9-4.4c1.6-1.9,2.8-4.1,3.6-6.6C375.8,409.4,376.3,406.6,376.3,403.6z"/>
<path fill="#86A3A8" d="M421.3,435.3v-63.1h12.3v63.1H421.3z"/>
<path fill="#86A3A8" d="M469.9,435.3v-63.1h42.4v10.8h-30.1v16.3h25.1v10h-25.1v26.1H469.9z"/>
<path fill="#86A3A8" d="M544,435.3v-63.1h42.4v10.8h-30.1v16.3h25.1v10h-25.1v26.1H544z"/>
<path fill="#86A3A8" d="M661.9,424.5v10.8h-43.8v-63.1h43v10.8h-30.8v15.2H657v10h-26.6v16.4H661.9z"/>
<path fill="#86A3A8" d="M694.6,435.3v-63.1h27.9c2.9,0,5.6,0.6,8,1.8c2.5,1.2,4.6,2.8,6.4,4.8c1.8,2,3.2,4.2,4.2,6.8
	c1,2.5,1.5,5.1,1.5,7.6c0,4.1-1,7.8-3.1,11.2c-2,3.3-4.8,5.8-8.3,7.2l14.4,23.7h-13.8L719,414.1h-12.1v21.2H694.6z M706.9,403.4
	h15.4c1.1,0,2.2-0.3,3.2-0.8c1-0.5,1.8-1.3,2.5-2.2c0.7-0.9,1.3-2,1.7-3.2c0.4-1.2,0.6-2.6,0.6-4c0-1.5-0.2-2.8-0.7-4.1
	c-0.5-1.2-1.1-2.3-1.9-3.2c-0.8-0.9-1.7-1.6-2.8-2.1c-1-0.5-2.1-0.8-3.2-0.8h-14.8V403.4z"/>
<path fill="#86A3A8" d="M820.7,424.5v10.8h-43.8v-63.1h43v10.8h-30.8v15.2h26.6v10h-26.6v16.4H820.7z"/>
<path fill="#86A3A8" d="M865.7,394.8v40.4h-12.3v-63.1h9.5l32.9,41.4v-41.3h12.3v63h-10L865.7,394.8z"/>
<path fill="#86A3A8" d="M991.5,382.9h-20.2v52.4h-12.2v-52.4H939v-10.8h52.5V382.9z"/>
</svg>
